<svg width="16" height="16" viewBox="0 0 16 16" fill="none" xmlns="http://www.w3.org/2000/svg">
<path d="M9.39344 2C9.11942 2 8.85663 2.10885 8.66287 2.30261C8.46911 2.49638 8.36025 2.75917 8.36025 3.03319C8.36025 3.30721 8.46911 3.57001 8.66287 3.76377C8.85663 3.95753 9.11942 4.06638 9.39344 4.06638C9.66746 4.06638 9.93026 3.95753 10.124 3.76377C10.3178 3.57001 10.4266 3.30721 10.4266 3.03319C10.4266 2.75917 10.3178 2.49638 10.124 2.30261C9.93026 2.10885 9.66746 2 9.39344 2ZM9.14548 5.28555C8.32581 5.35443 6.08723 7.13841 6.08723 7.13841C5.94947 7.24173 5.9908 7.23484 6.10101 7.4277C6.21121 7.61368 6.19744 7.62745 6.32831 7.53791C6.46607 7.44837 6.69337 7.30372 7.07221 7.06953C8.53245 6.13277 7.3064 8.29558 6.67959 11.9393C6.43163 13.7439 8.05718 12.8141 8.47735 12.5386C8.89062 12.2699 9.99958 11.5054 10.1098 11.4296C10.2613 11.3263 10.1511 11.2436 10.034 11.0714C9.95137 10.9543 9.86871 11.037 9.86871 11.037C9.421 11.3332 8.60133 11.9531 8.49112 11.5605C8.36025 11.1679 9.20058 8.47467 9.66207 6.62181C9.73784 6.18098 9.94448 5.21667 9.14548 5.28555Z" fill="#F65940"/>
<circle cx="8" cy="8" r="7.5" stroke="#F65940"/>
</svg>
