<svg width="26" height="27" viewBox="0 0 26 27" fill="none" xmlns="http://www.w3.org/2000/svg"> <path d="M3.03059 5.15248L3.03153 16.3276C3.03128 16.416 2.99602 16.5008 2.93348 16.5633L0.869672 18.6271C0.369575 19.1272 0.088623 19.8055 0.088623 20.5127C0.0886231 21.22 0.369576 21.8982 0.869673 22.3983L4.08842 25.6171C4.58852 26.1172 5.2668 26.3981 5.97404 26.3981C6.68128 26.3981 7.35956 26.1172 7.85966 25.6171L9.92347 23.5533C9.98646 23.491 10.0715 23.4561 10.1601 23.4562H21.3343C21.598 23.4565 21.8559 23.3786 22.0753 23.2324C22.2948 23.0862 22.466 22.8781 22.5672 22.6346C22.6684 22.3911 22.6951 22.123 22.644 21.8643C22.5929 21.6056 22.4662 21.3679 22.2799 21.1812L5.30936 4.21061C5.12308 4.02329 4.88537 3.89553 4.62636 3.84353C4.36736 3.79154 4.09875 3.81765 3.85461 3.91856C3.61048 4.01946 3.40182 4.19062 3.25511 4.4103C3.1084 4.62999 3.03025 4.88831 3.03059 5.15248Z" fill="white"/> <path d="M12.4285 0.798585C12.079 0.804661 11.7458 0.947785 11.5007 1.19713C11.2557 1.44648 11.1183 1.78211 11.1183 2.13172C11.1183 2.48132 11.2557 2.81695 11.5007 3.0663C11.7458 3.31565 12.079 3.45877 12.4285 3.46485C13.8202 3.46429 15.1983 3.73799 16.4842 4.2703C17.77 4.80262 18.9384 5.58311 19.9224 6.56717C20.9065 7.55123 21.687 8.71957 22.2193 10.0054C22.7516 11.2913 23.0253 12.6694 23.0247 14.0611C23.0308 14.4106 23.1739 14.7438 23.4233 14.9889C23.6726 15.2339 24.0083 15.3712 24.3579 15.3712C24.7075 15.3712 25.0431 15.2339 25.2925 14.9889C25.5418 14.7438 25.6849 14.4106 25.691 14.0611C25.6917 12.3192 25.3491 10.5943 24.6828 8.98494C24.0166 7.37555 23.0397 5.91324 21.808 4.68157C20.5763 3.44989 19.114 2.47301 17.5046 1.80675C15.8953 1.14049 14.1704 0.797906 12.4285 0.798585Z" fill="white"/> <path d="M12.5086 5.4966C12.3283 5.48728 12.1479 5.5147 11.9784 5.57719C11.809 5.63969 11.654 5.73597 11.5229 5.86018C11.3917 5.98439 11.2872 6.13395 11.2156 6.29977C11.1441 6.4656 11.1069 6.64424 11.1065 6.82485C11.106 7.00546 11.1423 7.18429 11.213 7.35046C11.2838 7.51664 11.3876 7.66672 11.5181 7.79157C11.6486 7.91643 11.8031 8.01348 11.9722 8.07682C12.1414 8.14015 12.3216 8.16847 12.502 8.16004C14.046 8.16348 15.5258 8.77836 16.6176 9.87013C17.7093 10.9619 18.3242 12.4417 18.3277 13.9857C18.3222 14.1642 18.3526 14.3421 18.4172 14.5087C18.4818 14.6752 18.5793 14.8271 18.7037 14.9553C18.8281 15.0835 18.9771 15.1854 19.1417 15.2549C19.3063 15.3244 19.4831 15.3601 19.6618 15.3599C19.8404 15.3597 20.0172 15.3236 20.1817 15.2538C20.3461 15.1839 20.4948 15.0817 20.619 14.9533C20.7432 14.8248 20.8403 14.6727 20.9045 14.506C20.9688 14.3393 20.9988 14.1614 20.993 13.9828C20.9876 11.7341 20.092 9.57904 18.5021 7.98878C16.9122 6.39853 14.7573 5.5025 12.5086 5.4966Z" fill="white"/> </svg>
