<svg width="43" height="48" viewBox="0 0 43 48" fill="none" xmlns="http://www.w3.org/2000/svg">
<path d="M31.1561 17.7043C31.4401 17.3995 31.5948 16.9963 31.5874 16.5797C31.5801 16.1631 31.4113 15.7656 31.1167 15.471C30.822 15.1764 30.4246 15.0076 30.008 15.0003C29.5914 14.9929 29.1882 15.1475 28.8833 15.4316L19.2993 25.0157L15.0754 20.7918C14.7706 20.5078 14.3674 20.3531 13.9508 20.3605C13.5342 20.3678 13.1367 20.5366 12.8421 20.8312C12.5475 21.1258 12.3787 21.5233 12.3713 21.9399C12.364 22.3565 12.5186 22.7597 12.8027 23.0645L18.1629 28.4248C18.4644 28.7259 18.8731 28.895 19.2993 28.895C19.7254 28.895 20.1341 28.7259 20.4356 28.4248L31.1561 17.7043Z" fill="black"/>
<path fill-rule="evenodd" clip-rule="evenodd" d="M22.5987 0.183101C21.8461 -0.0610336 21.0356 -0.0610336 20.2831 0.183101L2.59435 5.91853C1.84056 6.16306 1.18355 6.63997 0.717493 7.28089C0.251439 7.92181 0.000272645 8.69384 0 9.4863V20.2582C0 33.5301 8.08321 43.2106 20.1566 47.7668C20.9842 48.0777 21.8976 48.0777 22.7252 47.7668C34.7964 43.2085 42.8817 33.5301 42.8817 20.2582V9.4863C42.8817 7.85893 41.8311 6.42025 40.2874 5.91853L22.5987 0.183101ZM21.2758 3.24057C21.3831 3.20582 21.4986 3.20582 21.606 3.24057L39.2947 8.97815C39.4022 9.01295 39.4959 9.08082 39.5625 9.17208C39.6292 9.26334 39.6652 9.37331 39.6656 9.4863V20.2582C39.6656 31.9671 32.633 40.5906 21.591 44.7565C21.4942 44.7927 21.3876 44.7927 21.2908 44.7565C10.2487 40.5906 3.21613 31.9649 3.21613 20.2582V9.4863C3.21613 9.25473 3.36407 9.05105 3.58706 8.97815L21.2758 3.24057Z" fill="black"/>
</svg>
