<svg width="16" height="16" viewBox="0 0 16 16" fill="none" xmlns="http://www.w3.org/2000/svg">
<path d="M15.4286 8.3121e-07H11.3429C10.4661 8.3121e-07 9.60893 0.321094 8.87143 0.926844L8 1.63963L7.12857 0.926844C6.39181 0.32121 5.53371 -0.000596916 4.65714 8.3121e-07H0.571429C0.255357 8.3121e-07 0 0.325648 0 0.728723V13.6635C0 14.0666 0.255357 14.3923 0.571429 14.3923H4.65714C5.53393 14.3923 6.39107 14.7134 7.12857 15.3191L7.92143 15.9704C7.94464 15.9886 7.97143 16 7.99821 16C8.025 16 8.05179 15.9909 8.075 15.9704L8.86786 15.3191C9.60714 14.7134 10.4661 14.3923 11.3429 14.3923H15.4286C15.7446 14.3923 16 14.0666 16 13.6635V0.728723C16 0.325648 15.7446 8.3121e-07 15.4286 8.3121e-07ZM4.65714 12.7526H1.28571V1.63963H4.65714C5.28929 1.63963 5.90357 1.86963 6.43393 2.30458L7.30536 3.01736L7.42857 3.11984V13.6408C6.57857 13.0578 5.62857 12.7526 4.65714 12.7526ZM14.7143 12.7526H11.3429C10.3714 12.7526 9.42143 13.0578 8.57143 13.6408V3.11984L8.69464 3.01736L9.56607 2.30458C10.0964 1.86963 10.7107 1.63963 11.3429 1.63963H14.7143V12.7526ZM5.94464 4.55451H2.62679C2.55714 4.55451 2.5 4.63194 2.5 4.72531V5.75007C2.5 5.84344 2.55714 5.92087 2.62679 5.92087H5.94286C6.0125 5.92087 6.06964 5.84344 6.06964 5.75007V4.72531C6.07143 4.63194 6.01429 4.55451 5.94464 4.55451ZM9.92857 4.72531V5.75007C9.92857 5.84344 9.98571 5.92087 10.0554 5.92087H13.3714C13.4411 5.92087 13.4982 5.84344 13.4982 5.75007V4.72531C13.4982 4.63194 13.4411 4.55451 13.3714 4.55451H10.0554C9.98571 4.55451 9.92857 4.63194 9.92857 4.72531ZM5.94464 7.74267H2.62679C2.55714 7.74267 2.5 7.8201 2.5 7.91346V8.93823C2.5 9.0316 2.55714 9.10902 2.62679 9.10902H5.94286C6.0125 9.10902 6.06964 9.0316 6.06964 8.93823V7.91346C6.07143 7.8201 6.01429 7.74267 5.94464 7.74267ZM13.3732 7.74267H10.0554C9.98571 7.74267 9.92857 7.8201 9.92857 7.91346V8.93823C9.92857 9.0316 9.98571 9.10902 10.0554 9.10902H13.3714C13.4411 9.10902 13.4982 9.0316 13.4982 8.93823V7.91346C13.5 7.8201 13.4429 7.74267 13.3732 7.74267Z" fill="#F65940"/>
</svg>
