<svg width="35" height="28" viewBox="0 0 35 28" fill="none" xmlns="http://www.w3.org/2000/svg">
<path d="M32.8669 27.2807C33.6099 27.5822 34.4584 27.0546 34.4584 26.2534V3.23317C34.4614 3.03525 34.4065 2.84076 34.3006 2.67357C34.1946 2.50639 34.0421 2.37378 33.8618 2.29203C31.4368 1.20875 22.1891 -2.42444 17.2293 2.56984C12.2673 -2.42013 3.02174 1.20875 0.596748 2.29203C0.415796 2.37407 0.262854 2.50735 0.156831 2.67538C0.0508069 2.84341 -0.00365065 3.03883 0.000190006 3.23747V26.2556C0.000190006 27.0567 0.848723 27.5865 1.59173 27.2828C5.89685 25.5276 13.1912 23.9361 17.2293 28C21.2674 23.9361 28.5617 25.5276 32.8669 27.2807Z" fill="#F65940"/>
</svg>
