<svg width="31" height="40" viewBox="0 0 31 40" fill="none" xmlns="http://www.w3.org/2000/svg">
<path fill-rule="evenodd" clip-rule="evenodd" d="M23.8266 0C27.2294 0 30.0017 2.76494 30.0017 6.15867C30.0017 9.53576 27.2294 12.299 23.8266 12.299C20.4238 12.299 17.6699 9.53373 17.6699 6.15867C17.6699 2.76697 20.4238 0 23.8266 0ZM23.8266 1.03377C20.9849 1.03377 18.7065 3.32245 18.7065 6.15867C18.7065 8.97495 20.9849 11.2652 23.8266 11.2652C26.6684 11.2652 28.9651 8.97292 28.9651 6.15867C28.9651 3.32448 26.6684 1.03377 23.8266 1.03377Z" fill="black"/>
<path fill-rule="evenodd" clip-rule="evenodd" d="M27.4221 13.845C28.7733 13.845 29.9644 14.9463 29.868 16.3167V16.3328L28.1834 37.5928C28.0718 38.8841 27.0693 39.9999 25.7375 39.9999H20.2464C18.9011 39.9999 17.8005 38.9022 17.8005 37.5605V23.9904L11.1755 31.454L10.8678 31.7932L10.4952 31.5347L7.41759 29.4507V37.5767C7.41759 38.4631 6.68659 39.1922 5.7978 39.1922H2.67157C1.78619 39.1922 1.10791 38.452 1.05176 37.609L0.0798817 25.4766C-0.00179157 24.5402 0.812719 23.8126 1.69969 23.8126H5.7978H5.99218L6.13799 23.958L9.70153 27.2375L19.8252 14.055L19.9872 13.845H20.2464L27.4221 13.845ZM27.4221 14.8789H20.5055L10.4628 27.9483L11.8072 29.1761L20.1006 19.8223L20.8781 20.517L18.8372 22.811V37.5605C18.8372 38.3437 19.4611 38.9661 20.2464 38.9661H25.7375C26.4994 38.9661 27.0747 38.3456 27.1467 37.5121L28.8313 16.2521C28.8816 15.5343 28.2013 14.8789 27.4221 14.8789V14.8789ZM5.5872 24.8466H1.69969C1.37635 24.8466 1.07581 25.11 1.10039 25.3797H1.11646L2.08834 37.5283C2.1215 37.9293 2.23979 38.1457 2.67146 38.1583L5.7977 38.1942C6.25133 38.1806 6.38082 37.9233 6.38082 37.0757V28.756L5.37653 28.0774L5.95967 27.2212L10.7057 30.4199L11.1106 29.9514L5.5872 24.8466Z" fill="black"/>
<path fill-rule="evenodd" clip-rule="evenodd" d="M3.75072 13.8297C5.81367 13.8297 7.48308 15.5165 7.48308 17.5705C7.48308 19.6244 5.81367 21.3113 3.75072 21.3113C1.67228 21.3113 0 19.6244 0 17.5705C0 15.5165 1.67228 13.8297 3.75072 13.8297V13.8297ZM3.75072 14.8635C2.2294 14.8635 1.03655 16.0708 1.03655 17.5705C1.03655 19.0701 2.2294 20.2774 3.75072 20.2774C5.25083 20.2774 6.44654 19.0701 6.44654 17.5705C6.44654 16.0708 5.25083 14.8635 3.75072 14.8635V14.8635Z" fill="black"/>
</svg>
