<svg width="46" height="46" viewBox="0 0 46 46" fill="none" xmlns="http://www.w3.org/2000/svg">
<path d="M38.9034 12.541L37.8888 13.5472C37.8883 13.5472 37.8883 13.5472 37.8873 13.5482C37.8873 13.5482 37.8873 13.5492 37.8868 13.5492L17.6099 33.6488C17.387 33.8698 17.293 34.1634 17.3096 34.4516L15.6799 40.1927C15.5763 40.5585 15.6784 40.9513 15.9473 41.2214C16.15 41.4239 16.4235 41.5336 16.7036 41.5336C16.7961 41.5336 16.8896 41.5221 16.9811 41.4975L22.8135 39.9336C22.8443 39.9366 22.8716 39.9511 22.9024 39.9511C23.185 39.9511 23.4554 39.8404 23.6546 39.6429L44.9486 18.5332C45.5269 17.9604 45.8438 17.1992 45.8438 16.39C45.8433 15.5807 45.5248 14.819 44.9481 14.2478L43.2294 12.543C42.0743 11.395 40.0584 11.396 38.9034 12.541ZM38.64 15.7846L41.6765 18.7952L22.9019 37.405L19.8654 34.3944L38.64 15.7846ZM18.2347 38.976L18.9469 36.4665L20.7885 38.292L18.2347 38.976ZM43.7162 16.39C43.7162 16.6365 43.6201 16.8675 43.4447 17.0419L43.1809 17.303L40.1438 14.2934L40.4077 14.0313C40.7585 13.684 41.3722 13.683 41.724 14.0313L43.4437 15.738C43.6191 15.9124 43.7162 16.1434 43.7162 16.39Z" fill="black"/>
<path d="M26.9332 21.6715C26.9332 21.0892 26.4571 20.6172 25.8697 20.6172H12.9725C12.3846 20.6172 11.9089 21.0887 11.9089 21.6715C11.9089 22.2543 12.3846 22.7263 12.9725 22.7263H25.8697C26.4566 22.7263 26.9332 22.2538 26.9332 21.6715Z" fill="black"/>
<path d="M25.8697 13.2385H12.9725C12.3846 13.2385 11.9089 13.7101 11.9089 14.2933C11.9089 14.8756 12.3846 15.3476 12.9725 15.3476H25.8697C26.4566 15.3476 26.9332 14.8761 26.9332 14.2933C26.9332 13.7106 26.4566 13.2385 25.8697 13.2385Z" fill="black"/>
<path d="M12.9725 27.0583C12.3846 27.0583 11.9089 27.5299 11.9089 28.1127C11.9089 28.6959 12.3846 29.167 12.9725 29.167H16.6439C17.2318 29.167 17.7075 28.6964 17.7075 28.1127C17.7075 27.5304 17.2313 27.0583 16.6439 27.0583H12.9725Z" fill="black"/>
<path d="M30.6562 17.5981C31.2436 17.5981 31.7198 17.1266 31.7198 16.5438V3.34283C31.7198 2.76055 31.2441 2.28852 30.6562 2.28852H25.9925V1.05481C25.993 0.471534 25.5164 0 24.929 0C24.3411 0 23.8654 0.471534 23.8654 1.05481V2.28852H16.9487V1.05481C16.9487 0.471534 16.4731 0 15.8852 0C15.2973 0 14.8216 0.471534 14.8216 1.05481V2.28852H7.90341V1.05481C7.90341 0.471534 7.42723 0 6.83985 0C6.25246 0 5.77629 0.471534 5.77629 1.05481V2.28852H1.06356C0.47567 2.28852 0 2.76005 0 3.34283V44.4851C0 45.0673 0.47567 45.5394 1.06356 45.5394H26.4374C29.3804 45.5394 31.7754 43.1662 31.7754 40.2503V36.4274C31.7754 35.8451 31.2997 35.3731 30.7118 35.3731C30.1244 35.3731 29.6483 35.8446 29.6483 36.4274V40.2503C29.6483 42.0041 28.2076 43.4312 26.4374 43.4312H2.12763V4.39714H5.77629V5.6078C5.77629 6.19007 6.25246 6.66261 6.83985 6.66261C7.42723 6.66261 7.90341 6.19007 7.90341 5.6078V4.39714H14.8216V5.6078C14.8216 6.19007 15.2978 6.66261 15.8852 6.66261C16.4725 6.66261 16.9487 6.19007 16.9487 5.6078V4.39714H23.8649V5.6078C23.8649 6.19007 24.3406 6.66261 24.9285 6.66261C25.5158 6.66261 25.992 6.19007 25.992 5.6078V4.39714H29.5916V16.5438C29.5927 17.1261 30.0683 17.5981 30.6562 17.5981Z" fill="black"/>
<path d="M10.5057 10.7996C10.0301 10.4579 9.36483 10.5636 9.02059 11.0357L7.12954 13.6253L6.92683 13.467C6.46633 13.1057 5.79705 13.1824 5.43259 13.6384C5.06762 14.0954 5.14496 14.7578 5.60547 15.1201L6.67914 15.963C6.86819 16.1118 7.10123 16.191 7.33982 16.191C7.38784 16.191 7.43637 16.188 7.4849 16.1809C7.77202 16.1419 8.03184 15.987 8.20118 15.755L10.7438 12.2719C11.0886 11.7998 10.9814 11.1414 10.5057 10.7996Z" fill="black"/>
<path d="M10.5057 17.8681C10.0301 17.5263 9.36483 17.632 9.02059 18.1031L7.12954 20.6938L6.92683 20.5344C6.46633 20.1741 5.79705 20.2508 5.43259 20.7068C5.06762 21.1638 5.14496 21.8262 5.60547 22.1875L6.67914 23.0314C6.86819 23.1802 7.10123 23.2599 7.33982 23.2599C7.38784 23.2599 7.43637 23.2569 7.4849 23.2499C7.77202 23.2108 8.03184 23.0559 8.20118 22.8229L10.7438 19.3408C11.0886 18.8683 10.9814 18.2093 10.5057 17.8681Z" fill="black"/>
<path d="M7.32164 27.3675C7.12348 27.5625 7.01025 27.8346 7.01025 28.1122C7.01025 28.3913 7.12348 28.6634 7.32164 28.8578C7.51878 29.0557 7.79428 29.166 8.07381 29.166C8.35335 29.166 8.62784 29.0552 8.82548 28.8578C9.02364 28.6619 9.13788 28.3898 9.13788 28.1122C9.13788 27.8346 9.02364 27.563 8.82548 27.3675C8.43019 26.9742 7.71693 26.9742 7.32164 27.3675Z" fill="black"/>
</svg>
