<svg width="39" height="47" viewBox="0 0 39 47" fill="none" xmlns="http://www.w3.org/2000/svg">
<path d="M0.587443 45.8251C0.26303 45.8251 0 46.0881 0 46.4126C0 46.737 0.26303 47 0.587443 47H37.7174C38.0418 47 38.3048 46.737 38.3048 46.4126C38.3048 46.0881 38.0418 45.8251 37.7174 45.8251H36.3684V37.8069H37.7174C38.0418 37.8069 38.3048 37.5438 38.3048 37.2194C38.3048 36.895 38.0418 36.632 37.7174 36.632H32.9886V24.0444H33.7332C34.0576 24.0444 34.3206 23.7814 34.3206 23.457C34.3206 15.2901 27.8322 8.61379 19.7399 8.30365V6.78513H27.5051C27.8295 6.78513 28.0926 6.5221 28.0926 6.19769V1.34613C28.0926 1.02171 27.8295 0.758684 27.5051 0.758684H19.7399V0.587443C19.7399 0.26303 19.4768 0 19.1524 0C18.828 0 18.565 0.26303 18.565 0.587443V8.30365C10.4726 8.61379 3.98417 15.2901 3.98417 23.457C3.98417 23.7814 4.2472 24.0444 4.57161 24.0444H5.31624V36.632H0.587443C0.26303 36.632 0 36.895 0 37.2194C0 37.5438 0.26303 37.8069 0.587443 37.8069H1.93644V45.8251H0.587443ZM11.4385 37.8069V45.8251H7.86221V37.8069H11.4385ZM30.4426 37.8069V45.8251H26.8663V37.8069H30.4426ZM25.6914 45.8251H22.1154V37.8069H25.6914V45.8251ZM20.9406 45.8251H17.3643V37.8069H20.9406V45.8251ZM16.1894 45.8251H12.6134V37.8069H16.1894V45.8251ZM35.1935 45.8251H31.6175V37.8069H35.1935V45.8251ZM26.9177 1.93357V5.61025H19.7399V1.93357H26.9177ZM19.1524 9.46362C26.6716 9.46362 32.8245 15.425 33.1337 22.8695H5.1711C5.48031 15.425 11.6333 9.46362 19.1524 9.46362ZM6.49113 24.0444H31.8137V36.632H6.49113V24.0444ZM3.11132 37.8069H6.68732V45.8251H3.11132V37.8069Z" fill="black"/>
<path d="M10.1246 27.3011C9.80014 27.3011 9.53711 27.5642 9.53711 27.8886V33.1913C9.53711 33.5158 9.80014 33.7788 10.1246 33.7788C10.449 33.7788 10.712 33.5158 10.712 33.1913V27.8886C10.712 27.5642 10.449 27.3011 10.1246 27.3011Z" fill="black"/>
<path d="M14.6382 27.3011C14.3138 27.3011 14.0508 27.5642 14.0508 27.8886V33.1913C14.0508 33.5158 14.3138 33.7788 14.6382 33.7788C14.9626 33.7788 15.2257 33.5158 15.2257 33.1913V27.8886C15.2257 27.5642 14.9626 27.3011 14.6382 27.3011Z" fill="black"/>
<path d="M19.1519 27.3011C18.8275 27.3011 18.5645 27.5642 18.5645 27.8886V33.1913C18.5645 33.5158 18.8275 33.7788 19.1519 33.7788C19.4763 33.7788 19.7393 33.5158 19.7393 33.1913V27.8886C19.7393 27.5642 19.4763 27.3011 19.1519 27.3011Z" fill="black"/>
<path d="M23.6656 27.3011C23.3412 27.3011 23.0781 27.5642 23.0781 27.8886V33.1913C23.0781 33.5158 23.3412 33.7788 23.6656 33.7788C23.99 33.7788 24.253 33.5158 24.253 33.1913V27.8886C24.253 27.5642 23.99 27.3011 23.6656 27.3011Z" fill="black"/>
<path d="M28.1812 27.3011C27.8568 27.3011 27.5938 27.5642 27.5938 27.8886V33.1913C27.5938 33.5158 27.8568 33.7788 28.1812 33.7788C28.5056 33.7788 28.7686 33.5158 28.7686 33.1913V27.8886C28.7686 27.5642 28.5056 27.3011 28.1812 27.3011Z" fill="black"/>
</svg>
