<svg width="18" height="18" viewBox="0 0 18 18" fill="none" xmlns="http://www.w3.org/2000/svg">
<path d="M16.4996 13.5375C15.8888 12.9221 14.4096 12.0241 13.692 11.6622C12.7574 11.1914 12.6805 11.153 11.9459 11.6987C11.4559 12.0629 11.1302 12.3883 10.5567 12.266C9.9833 12.1437 8.7372 11.4541 7.64609 10.3665C6.55498 9.27881 5.8254 7.99656 5.70271 7.42504C5.58002 6.85353 5.91078 6.53162 6.27153 6.04049C6.77997 5.34821 6.74151 5.23283 6.30691 4.29825C5.96808 3.57136 5.04389 2.10604 4.42623 1.49837C3.76549 0.845711 3.76549 0.96109 3.33974 1.13801C2.99312 1.28384 2.6606 1.46111 2.34632 1.6676C1.73096 2.07643 1.38943 2.41603 1.1506 2.92639C0.911762 3.43675 0.804459 4.63324 2.03787 6.87391C3.27128 9.11459 4.13662 10.2603 5.9277 12.0464C7.71878 13.8325 9.09603 14.7928 11.1094 15.922C13.6001 17.3169 14.5554 17.045 15.0673 16.8066C15.5792 16.5681 15.9203 16.2297 16.3299 15.6143C16.537 15.3006 16.7146 14.9684 16.8607 14.622C17.038 14.1978 17.1534 14.1978 16.4996 13.5375Z" stroke="#F65940" stroke-miterlimit="10"/>
</svg>
