<svg width="37" height="40" viewBox="0 0 37 40" fill="none" xmlns="http://www.w3.org/2000/svg">
<path d="M33.7461 4.37568H12.4986V1.85409C12.4974 1.77052 12.5137 1.68762 12.5466 1.61077C12.5795 1.53392 12.6281 1.46483 12.6894 1.40798C12.7506 1.35113 12.8232 1.30778 12.9023 1.28075C12.9814 1.25371 13.0652 1.24359 13.1485 1.25103H21.8475C22.0277 1.25915 22.1972 1.33837 22.3191 1.47133C22.4409 1.6043 22.505 1.78015 22.4974 1.96033V3.12582C22.4974 3.29156 22.5633 3.45051 22.6805 3.56771C22.7977 3.68491 22.9566 3.75075 23.1223 3.75075C23.2881 3.75075 23.447 3.68491 23.5642 3.56771C23.6814 3.45051 23.7473 3.29156 23.7473 3.12582V1.96033C23.7548 1.44871 23.5589 0.955014 23.2027 0.58768C22.8465 0.220345 22.3591 0.00940242 21.8475 0.00117806H13.1485C12.9006 -0.00771153 12.6534 0.0337832 12.422 0.123152C12.1906 0.212521 11.9797 0.347907 11.8021 0.521119C11.6245 0.69433 11.4839 0.901768 11.3888 1.13088C11.2937 1.36 11.246 1.60603 11.2487 1.85409V4.37568H2.49971C1.83675 4.37568 1.20094 4.63904 0.732149 5.10783C0.263362 5.57661 0 6.21242 0 6.87539V25.3108C0 25.9737 0.263362 26.6096 0.732149 27.0783C1.20094 27.5471 1.83675 27.8105 2.49971 27.8105H12.7204L12.911 26.5606H2.49971C2.16823 26.5606 1.85032 26.429 1.61593 26.1946C1.38154 25.9602 1.24986 25.6423 1.24986 25.3108V11.8748H4.68696V13.7496C4.68696 13.9153 4.7528 14.0743 4.87 14.1915C4.9872 14.3087 5.14615 14.3745 5.31189 14.3745H7.8116C7.97734 14.3745 8.1363 14.3087 8.2535 14.1915C8.37069 14.0743 8.43653 13.9153 8.43653 13.7496V11.8748H12.4986C12.6643 11.8748 12.8233 11.809 12.9405 11.6918C13.0577 11.5746 13.1235 11.4156 13.1235 11.2499C13.1235 11.0841 13.0577 10.9252 12.9405 10.808C12.8233 10.6908 12.6643 10.625 12.4986 10.625H1.24986V6.87539C1.24986 6.54391 1.38154 6.226 1.61593 5.99161C1.85032 5.75721 2.16823 5.62553 2.49971 5.62553H33.7461C34.0776 5.62553 34.3955 5.75721 34.6299 5.99161C34.8643 6.226 34.996 6.54391 34.996 6.87539V10.625H23.7473C23.5815 10.625 23.4226 10.6908 23.3054 10.808C23.1882 10.9252 23.1223 11.0841 23.1223 11.2499C23.1223 11.4156 23.1882 11.5746 23.3054 11.6918C23.4226 11.809 23.5815 11.8748 23.7473 11.8748H27.8093V13.7496C27.8093 13.9153 27.8751 14.0743 27.9923 14.1915C28.1095 14.3087 28.2685 14.3745 28.4342 14.3745H30.934C31.0997 14.3745 31.2586 14.3087 31.3758 14.1915C31.493 14.0743 31.5589 13.9153 31.5589 13.7496V11.8748H34.996V25.3108C34.996 25.6423 34.8643 25.9602 34.6299 26.1946C34.3955 26.429 34.0776 26.5606 33.7461 26.5606H23.3973L23.5785 27.8105H33.7461C34.4091 27.8105 35.0449 27.5471 35.5137 27.0783C35.9825 26.6096 36.2458 25.9737 36.2458 25.3108V6.87539C36.2458 6.21242 35.9825 5.57661 35.5137 5.10783C35.0449 4.63904 34.4091 4.37568 33.7461 4.37568ZM7.18668 13.1247H5.93682V11.8748H7.18668V13.1247ZM30.309 13.1247H29.0592V11.8748H30.309V13.1247Z" fill="black"/>
<path d="M20.1758 13.1246C20.3088 13.1138 20.4349 13.0606 20.5356 12.9729C20.6362 12.8852 20.7061 12.7675 20.7351 12.6372L21.5381 8.90323V8.87198C21.5685 8.70062 21.5613 8.52472 21.517 8.35641C21.4728 8.1881 21.3926 8.03139 21.2819 7.8971C21.1764 7.77289 21.0453 7.67308 20.8974 7.60456C20.7496 7.53605 20.5887 7.50046 20.4257 7.50027H15.82C15.657 7.49924 15.4958 7.53363 15.3474 7.60107C15.1991 7.66851 15.0671 7.76738 14.9607 7.89085C14.8501 8.02514 14.7698 8.18185 14.7256 8.35016C14.6814 8.51847 14.6742 8.69438 14.7045 8.86574V8.89698L15.5075 12.6309C15.538 12.7731 15.6171 12.9001 15.7312 12.9902C15.8452 13.0803 15.9871 13.1279 16.1325 13.1246H16.2356L12.811 35.4471C12.7943 35.5551 12.8064 35.6657 12.8459 35.7677C12.8853 35.8697 12.9509 35.9595 13.036 36.0282L17.776 39.8591C17.8876 39.9502 18.0272 39.9999 18.1713 39.9999C18.3154 39.9999 18.455 39.9502 18.5666 39.8591L23.2004 36.0282C23.2829 35.9597 23.3463 35.8711 23.3846 35.771C23.4229 35.6708 23.4348 35.5625 23.4191 35.4564L20.1758 13.1246ZM14.3733 35.4846L21.01 27.498L21.2881 29.4009L15.4763 36.3751L14.3733 35.4846ZM15.9544 8.75012H20.2914L19.6196 11.8748H16.6262L15.9544 8.75012ZM18.9134 13.1246L20.7663 25.8482L14.3733 33.516L17.4979 13.1246H18.9134ZM18.1729 38.5655L16.4481 37.1844L21.5287 31.0757L22.1537 35.2846L18.1729 38.5655Z" fill="black"/>
</svg>
