<svg width="47" height="46" viewBox="0 0 47 46" fill="none" xmlns="http://www.w3.org/2000/svg">
<path d="M45.3625 41.536H42.9213V38.8855C42.9213 38.467 42.6423 38.188 42.2238 38.188H39.922V21.3783H42.3633C42.7818 21.3783 43.0608 21.0993 43.0608 20.6808V16.2168H45.3625C45.781 16.2168 46.06 15.9378 46.06 15.5193C46.06 15.2403 45.9205 15.0311 45.6415 14.8916L23.3913 0.104625C23.1821 -0.0348749 22.8333 -0.0348749 22.6241 0.104625L0.304157 14.8916C0.0251574 15.0311 -0.0445925 15.3798 0.0251573 15.6588C0.0949071 15.9378 0.373906 16.1471 0.722655 16.1471H3.09415V20.6111C3.09415 21.0296 3.37315 21.3086 3.79165 21.3086H6.23289V38.188H3.8614C3.4429 38.188 3.1639 38.467 3.1639 38.8855V41.536H0.722655C0.304157 41.536 0.0251573 41.815 0.0251573 42.2335V45.3025C0.0251573 45.721 0.304157 46 0.722655 46H45.3625C45.781 46 46.06 45.721 46.06 45.3025V42.2335C46.06 41.815 45.7113 41.536 45.3625 41.536ZM38.5271 38.188H34.4118V21.3783H38.5271V38.188ZM26.4603 38.188V21.3783H32.9471V38.2578H26.4603V38.188ZM13.0684 38.188V21.3783H19.5551V38.2578H13.0684V38.188ZM20.9501 21.3783H25.0653V38.2578H20.9501V21.3783ZM23.0426 1.49962L43.0608 14.7521C37.8993 14.7521 7.27914 14.7521 3.0244 14.7521L23.0426 1.49962ZM4.48915 16.1471H41.6658V19.9136C35.1791 19.9136 12.2314 19.9136 4.48915 19.9136V16.1471ZM7.55814 21.3783H11.6734V38.2578H7.55814V21.3783ZM4.5589 39.583C12.7894 39.583 34.3421 39.583 41.5263 39.583V41.536H4.5589V39.583ZM44.665 44.605H1.42015V42.931C6.09339 42.931 40.2708 42.931 44.665 42.931V44.605Z" fill="black"/>
</svg>
