<svg width="47" height="47" viewBox="0 0 47 47" fill="none" xmlns="http://www.w3.org/2000/svg">
<path d="M32.9718 23.0028H32.807C30.8915 23.0028 29.3332 21.4508 29.3332 19.5434C29.3332 17.6359 30.8915 16.0845 32.807 16.0845C34.7219 16.0845 36.2803 17.6359 36.2803 19.5434C36.2803 19.8694 36.5441 20.1333 36.8702 20.1333C37.1963 20.1333 37.4601 19.8694 37.4601 19.5434C37.4601 17.1851 35.6846 15.2366 33.3969 14.9462V13.7335C33.3969 13.4074 33.1331 13.1436 32.807 13.1436C32.4809 13.1436 32.2171 13.4074 32.2171 13.7335V14.9462C29.9293 15.2366 28.1533 17.1851 28.1533 19.5434C28.1533 22.1012 30.2411 24.1827 32.807 24.1827H32.9718C34.8873 24.1827 36.4456 25.7341 36.4456 27.6415C36.4456 29.549 34.8873 31.1004 32.9718 31.1004C31.0568 31.1004 29.4985 29.549 29.4985 27.6415C29.4985 27.3154 29.2346 27.0516 28.9086 27.0516C28.5825 27.0516 28.3187 27.3154 28.3187 27.6415C28.3187 29.9426 30.0097 31.8523 32.2171 32.2135V33.4514C32.2171 33.7775 32.4809 34.0413 32.807 34.0413C33.1331 34.0413 33.3969 33.7775 33.3969 33.4514V32.2588C35.7641 32.0437 37.6254 30.0564 37.6254 27.6415C37.6254 25.0837 35.5377 23.0028 32.9718 23.0028Z" fill="black"/>
<path d="M23.5001 6.76111C14.2458 6.76111 6.7168 14.2901 6.7168 23.5444C6.7168 32.7988 14.2458 40.3278 23.5001 40.3278C23.8262 40.3278 24.09 40.0639 24.09 39.7378V7.35103C24.09 7.02496 23.8262 6.76111 23.5001 6.76111ZM15.6733 23.5012C15.6733 21.618 15.9819 19.8857 16.4755 18.3129H22.9102V28.5472H16.421C15.958 27.0078 15.6733 25.3213 15.6733 23.5012ZM22.9102 17.1331H16.8901C18.5354 12.925 21.4308 10.0381 22.9102 8.76159V17.1331ZM22.9102 29.7271V38.4039C21.4069 37.0761 18.4554 34.0658 16.8241 29.7271H22.9102ZM21.9479 8.01858C20.2566 9.49107 17.2372 12.6004 15.6087 17.1331H9.28027C11.5279 12.1677 16.2976 8.57919 21.9479 8.01858ZM8.80157 18.3129H15.2262C14.7721 19.8914 14.4935 21.6222 14.4935 23.5012C14.4935 25.3187 14.7558 27.0016 15.1837 28.5472H8.72401C8.19044 26.9756 7.89664 25.2942 7.89664 23.5444C7.89664 21.7099 8.21738 19.9493 8.80157 18.3129ZM9.17672 29.7271H15.5485C17.1361 34.309 20.1351 37.5069 21.8594 39.0611C16.1611 38.4629 11.3684 34.785 9.17672 29.7271Z" fill="black"/>
<path d="M38.4625 5.39281H41.8814C42.2075 5.39281 42.4713 5.12896 42.4713 4.80289C42.4713 4.47682 42.2075 4.21297 41.8814 4.21297H36.9028C33.0981 1.561 28.4791 0 23.5 0C10.5419 0 0 10.5419 0 23.5C0 30.6338 3.1993 37.0306 8.2336 41.3439H4.74701C4.42094 41.3439 4.15709 41.6078 4.15709 41.9338C4.15709 42.2599 4.42094 42.5238 4.74701 42.5238H9.72726C13.6005 45.3357 18.3583 47 23.5 47C36.4581 47 47 36.4581 47 23.5C47 16.2219 43.674 9.70667 38.4625 5.39281ZM23.5 45.8202C18.6328 45.8202 14.1281 44.2497 10.4561 41.5953V36.8152C10.4561 36.4892 10.1922 36.2253 9.86617 36.2253C9.54011 36.2253 9.27625 36.4892 9.27625 36.8152V40.6875C4.33373 36.5901 1.17984 30.4069 1.17984 23.5C1.17984 11.1923 11.1923 1.17984 23.5 1.17984C28.2042 1.17984 32.5702 2.64614 36.1729 5.14062V9.92206C36.1729 10.2481 36.4368 10.512 36.7628 10.512C37.0889 10.512 37.3527 10.2481 37.3527 9.92206V6.01809C42.5061 10.1101 45.8202 16.4233 45.8202 23.5C45.8202 35.8077 35.8077 45.8202 23.5 45.8202Z" fill="black"/>
</svg>
