<svg width="50" height="37" viewBox="0 0 50 37" fill="none" xmlns="http://www.w3.org/2000/svg">
<path d="M45.2522 29.5667V13.8607H45.2372L50 11.6426L25 0L0 11.6426L10.2106 16.3979V24.8136C10.2106 28.8737 16.7072 32.0541 25 32.0541C33.2928 32.0541 39.7894 28.8737 39.7894 24.8136V16.3979L43.2422 14.7895V29.5667C41.6533 30.0104 40.4822 31.4752 40.4822 33.2132C40.4822 35.3016 42.1711 37 44.2467 37C46.3228 37 48.0117 35.3011 48.0117 33.2132C48.0122 31.4752 46.8411 30.0104 45.2522 29.5667ZM25 2.22759L45.2161 11.6426L25 21.0576L4.78389 11.6426L25 2.22759ZM37.78 24.8131C37.78 27.2815 32.5311 30.0317 25 30.0317C17.4683 30.0317 12.22 27.281 12.22 24.8131V17.3334L25 23.2852L37.78 17.3334V24.8131ZM44.2472 34.9781C43.2794 34.9781 42.4922 34.1862 42.4922 33.2127C42.4922 32.2391 43.2794 31.4467 44.2472 31.4467C45.215 31.4467 46.0028 32.2386 46.0028 33.2127C46.0028 34.1862 45.2156 34.9781 44.2472 34.9781Z" fill="black"/>
</svg>
