<svg width="57" height="61" viewBox="0 0 57 61" fill="none" xmlns="http://www.w3.org/2000/svg">
<path d="M50.4943 0.00032528C48.6882 -0.0150182 46.9197 0.512777 45.4216 1.51425C45.0916 1.75606 44.8492 2.09737 44.7309 2.48719C44.6125 2.877 44.6243 3.29438 44.7647 3.67694L45.4267 5.48088C45.5298 5.76176 45.6987 6.0143 45.9194 6.21767C46.1402 6.42104 46.4065 6.56941 46.6963 6.65055C46.9862 6.73169 47.2913 6.74327 47.5866 6.68435C47.8819 6.62542 48.1588 6.49767 48.3945 6.31163C48.8655 6.00148 49.4178 5.83536 49.9829 5.83384C50.718 5.84866 50.7181 6.03724 50.7181 6.41019C50.7181 7.06463 50.3211 7.79108 49.2013 9.18627C47.1769 11.6658 46.9289 13.9585 47.0845 15.4544L47.1376 16.1692C47.1728 16.6441 47.3878 17.0882 47.7393 17.4124C48.0908 17.7365 48.5528 17.9166 49.0325 17.9166H51.1839C51.4395 17.9166 51.6925 17.8654 51.9278 17.7661C52.163 17.6667 52.3756 17.5213 52.5529 17.3385C52.7302 17.1557 52.8685 16.9392 52.9595 16.7021C53.0505 16.4649 53.0924 16.212 53.0826 15.9585L53.0549 15.2427L53.0533 15.209C53.0112 14.4651 53.1216 13.5933 54.2056 12.2633C55.6748 10.4843 57.0004 8.66607 57.0004 6.09517C57.0004 3.15969 54.9644 0.00032528 50.4943 0.00032528ZM52.7284 11.0772C51.5149 12.5661 51.0735 13.8546 51.1563 15.3149L51.1839 16.0307H49.0326L48.9773 15.2861C48.8118 13.7687 49.3083 12.0507 50.6874 10.3614C51.9285 8.8152 52.6181 7.69877 52.6181 6.41022C52.6181 4.94991 51.7355 3.97643 49.9979 3.94789C48.9984 3.94561 48.0235 4.25619 47.212 4.83546L46.5501 3.03152C47.7215 2.27041 49.0943 1.8718 50.4943 1.88625C53.6661 1.88625 55.1003 3.91905 55.1003 6.09517C55.1004 8.04208 54.0524 9.47387 52.7284 11.0772H52.7284Z" fill="black"/>
<path d="M50.358 19.8026C49.7943 19.801 49.2428 19.9654 48.7732 20.275C48.3036 20.5846 47.9371 21.0254 47.7199 21.5418C47.5028 22.0581 47.4448 22.6268 47.5533 23.1759C47.6617 23.7249 47.9318 24.2298 48.3293 24.6265C48.7269 25.0232 49.234 25.294 49.7866 25.4046C50.3392 25.5152 50.9124 25.4607 51.4337 25.248C51.9551 25.0352 52.4012 24.6738 52.7156 24.2094C53.03 23.7449 53.1986 23.1984 53.2001 22.6389C53.2041 22.2666 53.1334 21.8972 52.9922 21.5523C52.851 21.2074 52.642 20.8938 52.3775 20.6299C52.113 20.3659 51.7982 20.1568 51.4515 20.0148C51.1048 19.8727 50.7331 19.8006 50.358 19.8026ZM50.3421 23.5744H50.3261C50.2023 23.5769 50.0794 23.5543 49.9648 23.508C49.8502 23.4616 49.7464 23.3926 49.6597 23.3049C49.573 23.2173 49.5052 23.1131 49.4605 22.9985C49.4159 22.884 49.3953 22.7616 49.4 22.6389C49.3947 22.5126 49.4158 22.3866 49.4621 22.2689C49.5084 22.1512 49.5787 22.0443 49.6688 21.9549C49.7588 21.8656 49.8666 21.7958 49.9852 21.7499C50.1038 21.7041 50.2308 21.6831 50.358 21.6885C50.4827 21.6895 50.6061 21.7149 50.7209 21.7633C50.8358 21.8116 50.9399 21.882 51.0274 21.9703C51.1149 22.0586 51.184 22.1631 51.2307 22.2779C51.2775 22.3927 51.3011 22.5155 51.3 22.6393C51.299 22.7632 51.2734 22.8856 51.2247 22.9996C51.1759 23.1136 51.1051 23.217 51.0161 23.3038C50.9272 23.3906 50.8219 23.4592 50.7062 23.5057C50.5906 23.5521 50.4668 23.5755 50.3421 23.5744Z" fill="black"/>
<path d="M37.9993 2.50049C36.0726 2.50049 34.6742 3.66322 34.6742 5.26526V17.3111C33.928 17.3082 33.0058 17.3056 31.9971 17.3033C33.1497 16.3887 33.9878 15.1414 34.3956 13.7338C34.8034 12.3261 34.7608 10.8275 34.2736 9.44486C33.7865 8.06226 32.8788 6.86391 31.6761 6.01533C30.4733 5.16674 29.0348 4.70979 27.5591 4.70758C26.0835 4.70537 24.6436 5.15801 23.4382 6.00299C22.2329 6.84797 21.3216 8.04359 20.8303 9.42472C20.3389 10.8059 20.2917 12.3043 20.6952 13.7132C21.0987 15.1221 21.933 16.3719 23.0829 17.2899C21.7873 17.2887 20.9295 17.2881 20.9001 17.288C19.1324 17.3012 17.4235 17.9192 16.0616 19.0378C14.6997 20.1564 13.7682 21.707 13.4244 23.4281C13.3428 23.5683 13.2994 23.7271 13.2984 23.8889V24.4102C13.2919 24.5141 13.2782 24.6162 13.2759 24.7212C13.2747 24.8255 13.2822 24.9297 13.2984 25.0328V37.3262C13.328 38.1285 13.6631 38.8899 14.2361 39.4566C14.809 40.0233 15.5773 40.3532 16.3857 40.3797L16.3692 42.2601C16.3631 42.7248 16.5319 43.175 16.8425 43.5228C17.153 43.8706 17.5831 44.0909 18.0486 44.1407V56.5782C18.0497 57.5778 18.4506 58.5362 19.1631 59.2426C19.8757 59.9491 20.8416 60.3459 21.8488 60.3459C22.8559 60.3459 23.8218 59.9491 24.5344 59.2426C25.2469 58.5362 25.6478 57.5778 25.6489 56.5782V44.1625H27.549V56.5782C27.5501 57.5778 27.9509 58.5362 28.6635 59.2426C29.376 59.9491 30.342 60.3459 31.3491 60.3459C32.3562 60.3459 33.3221 59.9491 34.0347 59.2426C34.7472 58.5362 35.1481 57.5778 35.1492 56.5782V44.0958C35.5563 43.9923 35.9172 43.7574 36.1752 43.4281C36.4331 43.0987 36.5735 42.6937 36.5743 42.2765V27.8746C36.5749 27.6576 36.6255 27.4437 36.7223 27.2491C36.819 27.0546 36.9592 26.8846 37.1323 26.7521L39.2784 25.1189C39.913 24.6331 40.4273 24.0097 40.7819 23.2963C41.1365 22.5829 41.3221 21.7985 41.3245 21.0031V5.26524C41.3245 3.66322 39.926 2.50049 37.9993 2.50049ZM22.3238 11.7874C22.3237 10.7616 22.6302 9.75885 23.2043 8.90591C23.7784 8.05298 24.5945 7.38818 25.5492 6.9956C26.504 6.60302 27.5546 6.50029 28.5682 6.70039C29.5818 6.90049 30.5129 7.39444 31.2437 8.11977C31.9744 8.84511 32.4721 9.76925 32.6737 10.7753C32.8754 11.7814 32.7719 12.8243 32.3764 13.772C31.9809 14.7197 31.3112 15.5297 30.4519 16.0996C29.5927 16.6695 28.5824 16.9737 27.549 16.9737C26.8628 16.9737 26.1833 16.8396 25.5494 16.579C24.9155 16.3183 24.3394 15.9363 23.8542 15.4547C23.369 14.9731 22.9841 14.4014 22.7215 13.7722C22.4589 13.1429 22.3238 12.4685 22.3238 11.7874ZM23.7488 56.5782C23.7488 57.0784 23.5486 57.5581 23.1923 57.9118C22.836 58.2655 22.3527 58.4642 21.8488 58.4642C21.3448 58.4642 20.8615 58.2655 20.5052 57.9118C20.1489 57.5581 19.9487 57.0784 19.9487 56.5782V44.1625H23.7488V56.5782ZM33.2492 56.5782C33.2492 57.0784 33.049 57.5581 32.6926 57.9118C32.3363 58.2655 31.853 58.4642 31.3491 58.4642C30.8452 58.4642 30.3619 58.2655 30.0055 57.9118C29.6492 57.5581 29.449 57.0784 29.449 56.5782V44.1625H33.2492V56.5782ZM39.4244 21.0031C39.4244 21.5095 39.3069 22.0092 39.0812 22.4634C38.8554 22.9176 38.5273 23.3141 38.1224 23.6223L35.9762 25.2554C35.5713 25.5635 35.2432 25.96 35.0174 26.4142C34.7917 26.8684 34.6742 27.3681 34.6742 27.8746V42.2765H18.2692L18.2894 39.9743C18.7817 39.7234 19.196 39.3446 19.4883 38.8782C19.7805 38.4118 19.9397 37.8753 19.9487 37.3262V29.0752C19.9487 28.8251 19.8486 28.5853 19.6704 28.4084C19.4923 28.2316 19.2506 28.1322 18.9986 28.1322C18.7467 28.1322 18.505 28.2316 18.3269 28.4084C18.1487 28.5853 18.0486 28.8251 18.0486 29.0752V37.3262C18.014 37.6688 17.8453 37.9842 17.5788 38.2046C17.3123 38.4251 16.9693 38.5329 16.6236 38.5049C16.2778 38.5329 15.9348 38.4251 15.6683 38.2046C15.4018 37.9842 15.2331 37.6688 15.1985 37.3262V24.926L15.3358 25.0759L15.1985 24.8318V24.4442C15.3134 23.0177 15.9623 21.6855 17.0173 20.7101C18.0723 19.7346 19.457 19.1866 20.8987 19.174C20.8987 19.174 31.2695 19.1812 35.1456 19.199L35.1524 19.1991C35.3394 19.199 35.5245 19.1623 35.6971 19.0912C35.8698 19.02 36.0267 18.9158 36.1587 18.7844C36.2908 18.6531 36.3955 18.4971 36.4668 18.3256C36.5381 18.154 36.5746 17.9702 36.5743 17.7846V5.26524C36.5743 4.67937 37.2868 4.3864 37.9993 4.3864C38.7119 4.3864 39.4244 4.67935 39.4244 5.26524V21.0031Z" fill="black"/>
<path d="M13.9772 15.6401L13.1413 11.7203L15.9177 10.3748C16.7823 9.94231 17.4526 9.20437 17.7969 8.30612C18.1411 7.40786 18.1343 6.41428 17.7778 5.52075L16.537 2.38394C16.2694 1.68497 15.7946 1.08298 15.1752 0.657416C14.5558 0.231853 13.8209 0.00272916 13.0676 0.000289921C12.6231 0.0002687 12.1823 0.0808934 11.7669 0.23819L2.43703 3.758C1.97013 3.93447 1.54347 4.20177 1.1821 4.5442C0.820731 4.88663 0.531946 5.29728 0.332705 5.75204C0.124586 6.22223 0.0118311 6.72851 0.0008821 7.24197C-0.0100669 7.75542 0.0810044 8.26599 0.268893 8.7445L1.84221 12.7218C2.10993 13.4208 2.58492 14.0229 3.20449 14.4485C3.82406 14.8741 4.55908 15.1032 5.31253 15.1055C5.86999 15.106 6.42009 14.9793 6.92033 14.7351L7.11983 14.6384L10.971 17.534C11.2798 17.7661 11.6527 17.8991 12.0398 17.915C12.4268 17.9309 12.8095 17.829 13.1365 17.6229C13.4636 17.4169 13.7194 17.1165 13.8696 16.7622C14.0199 16.4078 14.0574 16.0162 13.9772 15.6401L13.9772 15.6401ZM10.9753 10.6712L12.1183 16.0307L7.33596 12.435L6.08665 13.0404C5.84577 13.158 5.58096 13.2193 5.31251 13.2196C4.94137 13.2151 4.58028 13.0993 4.2766 12.8874C3.97293 12.6756 3.74087 12.3776 3.61086 12.0325L2.03753 8.05527C1.84249 7.57765 1.84606 7.04278 2.04747 6.56777C2.24887 6.09276 2.6317 5.71632 3.11212 5.52087L12.442 2.00106C12.6418 1.92532 12.8538 1.8864 13.0676 1.88622C13.4386 1.89098 13.7995 2.00686 14.1029 2.21866C14.4064 2.43047 14.6383 2.72833 14.7684 3.07321L16.0092 6.20998C16.1925 6.66213 16.1993 7.1659 16.0282 7.62275C15.8571 8.07959 15.5204 8.45664 15.0841 8.68013L10.9753 10.6712Z" fill="black"/>
</svg>
