<svg width="24" height="24" viewBox="0 0 24 24" fill="none" xmlns="http://www.w3.org/2000/svg">
<path d="M11.9906 1.7883C6.19453 1.78596 1.5 6.47814 1.5 12.2696C1.5 16.8492 4.43672 20.7422 8.52656 22.1719C9.07734 22.3102 8.99297 21.9188 8.99297 21.6516V19.8352C5.8125 20.2078 5.68359 18.1031 5.47031 17.7516C5.03906 17.0156 4.01953 16.8281 4.32422 16.4766C5.04844 16.1039 5.78672 16.5703 6.64219 17.8336C7.26094 18.75 8.46797 18.5953 9.07969 18.443C9.21328 17.8922 9.49922 17.4 9.89297 17.018C6.59766 16.4274 5.22422 14.4164 5.22422 12.0258C5.22422 10.8656 5.60625 9.79924 6.35625 8.93908C5.87812 7.52111 6.40078 6.30705 6.47109 6.12658C7.83281 6.00471 9.24844 7.10158 9.35859 7.1883C10.132 6.97971 11.0156 6.86955 12.0047 6.86955C12.9984 6.86955 13.8844 6.98439 14.6648 7.19533C14.9297 6.99377 16.2422 6.05158 17.5078 6.16643C17.5758 6.34689 18.0867 7.53283 17.6367 8.93205C18.3961 9.79455 18.7828 10.8703 18.7828 12.0328C18.7828 14.4281 17.4 16.4414 14.0953 17.0227C14.3784 17.301 14.6031 17.633 14.7564 17.9992C14.9098 18.3654 14.9886 18.7585 14.9883 19.1555V21.7922C15.007 22.0031 14.9883 22.2117 15.3398 22.2117C19.4906 20.8125 22.4789 16.8914 22.4789 12.2719C22.4789 6.47814 17.782 1.7883 11.9906 1.7883V1.7883Z" fill="#F65940"/>
</svg>
