<svg width="37" height="37" viewBox="0 0 37 37" fill="none" xmlns="http://www.w3.org/2000/svg">
<path d="M22.73 37H14.2714C13.4338 37 12.753 36.3187 12.753 35.4816V24.248H1.51839C0.681725 24.248 0 23.5667 0 22.7296V14.2704C0 13.4338 0.682187 12.752 1.51839 12.752H12.753V1.51839C12.753 0.681725 13.4342 0 14.2714 0H22.73C23.5667 0 24.2475 0.682187 24.2475 1.51839V12.752H35.4812C36.3187 12.752 36.9995 13.4342 36.9995 14.2704V22.7291C36.9995 23.5667 36.3183 24.2475 35.4812 24.2475H24.248V35.4812C24.248 36.3187 23.5667 37 22.73 37ZM1.51839 14.054C1.39906 14.054 1.30148 14.1516 1.30148 14.2709V22.7296C1.30148 22.8498 1.39906 22.9465 1.51839 22.9465H14.0545V35.4821C14.0545 35.6014 14.1511 35.699 14.2714 35.699H22.73C22.8493 35.699 22.9469 35.6014 22.9469 35.4821V22.946H35.4816C35.6009 22.946 35.6985 22.8493 35.6985 22.7291V14.2704C35.6985 14.1511 35.6009 14.0535 35.4816 14.0535H22.9469V1.51839C22.9469 1.39906 22.8493 1.30148 22.73 1.30148H14.2714C14.1511 1.30148 14.0545 1.39906 14.0545 1.51839V14.054H1.51839Z" fill="black"/>
</svg>
