<svg width="33" height="47" viewBox="0 0 33 47" fill="none" xmlns="http://www.w3.org/2000/svg">
<path d="M32.0773 35.8451L27.3243 27.6001H28.5368C29.0218 27.6001 29.3613 27.2121 29.3613 26.7756C29.3613 26.2906 28.9733 25.9511 28.5368 25.9511H18.7399C18.4489 25.1266 17.8184 24.4476 16.9454 24.1566V19.3552H17.4304C21.1649 19.3552 24.2204 16.2997 24.2204 12.5652V12.1287C24.2204 11.6922 24.5599 11.4497 24.8994 11.3042C25.7239 10.9647 28.0518 9.94624 28.1488 9.89774C28.3913 9.80074 28.5368 9.60675 28.6338 9.36425C28.7308 9.12175 28.6823 8.87925 28.5368 8.68525C28.3913 8.44275 26.9848 6.21177 26.2089 5.38727C25.4814 4.65978 24.5599 4.27178 23.5899 4.27178C22.6199 4.27178 21.6984 4.70828 21.0679 5.43577C20.6314 5.96927 20.3404 6.40577 20.0979 6.89076C20.0009 7.08476 19.8554 7.27876 19.7584 7.42426C18.4004 6.16327 13.0654 1.1678 12.3864 0.488805C11.9014 0.00380837 11.2225 -0.141691 10.592 0.149307C9.96146 0.391806 9.52496 1.0223 9.52496 1.7013V3.15629C8.36097 2.38029 7.14848 1.5073 5.93599 0.537305C5.59649 0.246307 5.20849 0.100808 4.772 0.100808C3.7535 0.100808 2.97751 0.876803 2.97751 1.8953V6.98776C2.97751 10.1887 4.5295 12.9047 7.00298 13.9717H7.05148L8.70047 14.6022C8.06997 14.7477 7.34248 14.8447 6.56648 14.9417C6.12999 14.9902 5.79049 15.4267 5.83899 15.8632C6.17849 19.3067 8.06997 21.2952 9.57346 22.4107C11.2225 23.5747 12.7744 23.9627 12.8229 23.9627C12.8714 23.9627 12.9684 23.9627 13.0169 23.9627C13.3564 23.9627 13.6474 23.7687 13.7929 23.4292L15.2479 20.0342V24.0596C14.4234 24.3506 13.7444 24.9811 13.4534 25.8541H3.608C3.12301 25.8541 2.78351 26.2421 2.78351 26.6786C2.78351 27.1636 3.17151 27.5031 3.608 27.5031H4.86899L0.116026 35.7481C0.019027 35.9421 -0.0294731 36.1846 0.0190266 36.3786C0.0675263 36.5726 0.213026 36.7666 0.407025 36.9121C2.15301 37.8821 4.19 38.4156 6.22699 38.4156C8.26397 38.4156 10.2525 37.8821 12.0469 36.9121C12.2409 36.8151 12.3864 36.6211 12.4349 36.3786C12.4834 36.1361 12.4834 35.9421 12.3379 35.7481L7.58498 27.5031H13.4534C13.7444 28.3276 14.3749 29.0066 15.2479 29.2976V40.986H8.99147C7.00298 40.986 5.40249 42.5865 5.40249 44.575V46.1755C5.40249 46.6605 5.79049 47 6.22699 47H25.9179C26.4029 47 26.7423 46.612 26.7423 46.1755V44.575C26.7423 42.5865 25.1419 40.986 23.1534 40.986H16.9454V29.3946C17.7699 29.1036 18.4489 28.4731 18.7399 27.6001H24.6084L19.8554 35.8451C19.7584 36.0391 19.7099 36.2816 19.7584 36.4756C19.8069 36.7181 19.9524 36.8636 20.1464 37.0091C21.8924 37.9791 23.9294 38.5126 25.9664 38.5126C28.0033 38.5126 29.9918 37.9791 31.7863 37.0091C31.9803 36.9121 32.1258 36.7181 32.1743 36.4756C32.2228 36.2816 32.1743 36.0391 32.0773 35.8451ZM6.27548 36.8151C4.82049 36.8151 3.414 36.5241 2.05601 35.8936L6.27548 28.6186L10.495 35.8936C9.13697 36.5241 7.68198 36.8151 6.27548 36.8151ZM25.0934 44.575V45.351H7.09998V44.575C7.09998 43.508 7.97297 42.6835 8.99147 42.6835H23.2019C24.2689 42.6835 25.0934 43.5565 25.0934 44.575ZM11.271 1.7498C12.1924 2.67129 17.4304 7.56976 18.6429 8.73375C17.7214 8.15176 16.7514 7.56976 15.7329 6.98776C14.3264 6.16327 12.8229 5.29027 11.271 4.27178V1.7498ZM14.2294 18.1427L12.5319 22.1197C11.2225 21.5862 8.36097 20.1312 7.63347 16.5422C9.96146 16.2027 11.7074 15.6207 11.7559 15.5722C12.0954 15.4752 12.3379 15.1357 12.3379 14.7962C12.3379 14.4567 12.1439 14.1172 11.8044 13.9717L7.68198 12.4197C5.49949 11.4497 4.7235 8.87925 4.7235 6.98776V1.8953C4.7235 1.8468 4.7235 1.7983 4.82049 1.7983C4.86899 1.7983 4.91749 1.7983 4.96599 1.8468C8.50647 4.65978 11.9014 6.64826 14.9084 8.44275C16.1209 9.17025 17.2849 9.84924 18.3034 10.5282C18.5944 10.7222 19.0309 10.7222 19.2734 10.4797C20.5829 9.41275 21.0679 8.53975 21.5529 7.76376C21.7954 7.37576 22.0379 6.93926 22.3774 6.55127C22.7169 6.16327 23.1534 5.96927 23.5899 5.96927C24.0749 5.96927 24.5599 6.21177 24.9964 6.59977C25.3844 6.98776 26.0634 7.95776 26.5483 8.73375C25.7724 9.07325 24.7054 9.50975 24.2204 9.70374C23.1534 10.1402 22.5229 11.0617 22.5229 12.0802V12.5167C22.5229 15.3297 20.2434 17.6092 17.4304 17.6092H15.0054C14.6659 17.6577 14.3749 17.8517 14.2294 18.1427ZM25.9664 36.8151C24.5114 36.8151 23.1049 36.5241 21.7469 35.8936L25.9664 28.6186L30.1858 35.8936C28.8278 36.5241 27.4213 36.8151 25.9664 36.8151Z" fill="black"/>
</svg>
