<svg xmlns="http://www.w3.org/2000/svg" data-name="Layer 1" viewBox="0 0 100 125" x="0px" y="0px"><title>bryanlow</title><path d="M86.37,69.27l-.11-.11a2,2,0,0,0-2.74-2.74L61.35,44.26l.63-.63a2,2,0,0,0-2.83-2.83l-.63.63-2.07-2.07,1.83-1.83h0l3.91-3.91a4.71,4.71,0,0,0,5.17-7.68L56.51,15.1a4.71,4.71,0,0,0-7.67,5.17l-3.91,3.91h0L43.1,26l-.35-.35a1.94,1.94,0,0,0-.28-.23,5.39,5.39,0,0,0-7.35,7.87l.35.35L30,39.14a3.39,3.39,0,0,0-4.45.29l-1.86,1.86a3.4,3.4,0,0,0,0,4.81L36.36,58.81a3.4,3.4,0,0,0,4.81,0L43,56.95a3.39,3.39,0,0,0,.29-4.45l5.5-5.5,2.07,2.07-.61.61a2,2,0,1,0,2.83,2.83l.61-.61L75.88,74.06a2,2,0,0,0,2.73,2.73l.12.12a1.87,1.87,0,0,0,.28.23,5.39,5.39,0,0,0,7.36-7.87ZM52.21,37.94l-4.81,4.81h0l-1.81,1.81-7.7-7.71,4.21-4.21,2.41-2.41h0l1.83-1.83,7.7,7.7-1.83,1.83Zm-19.4,4,2.24-2.24,7.7,7.71-2.24,2.24Zm19.85-24a.72.72,0,0,1,1,0L64.53,28.78a.72.72,0,1,1-1,1l-2.91-2.91a2,2,0,1,0-2.83,2.83L59.11,31l-2.24,2.24-7.7-7.7,3.66-3.66a2,2,0,0,0,0-2.83L52.74,19l-.07-.09A.72.72,0,0,1,52.67,17.93ZM38.29,30.81l-.35-.35a1.39,1.39,0,0,1,2-2,1.85,1.85,0,0,0,.22.19l.14.14-1,1Zm.47,24.75L26.9,43.69l1-1L39.77,54.54ZM51.65,44.17l1-1,1-1,2.07,2.07-2,2Zm6.88,2.92L80.64,69.2l-2,2L56.55,49.07Zm25,27a1.42,1.42,0,0,1-2,0L81.5,74l2-2,.07.07a1.39,1.39,0,0,1,0,2Z"/><path d="M56,82H53.1a2,2,0,0,0-.1-.64l0-.12a10.54,10.54,0,0,0-10-7.24H26.68a10.55,10.55,0,0,0-10,7.25l0,.13a2,2,0,0,0-.09.62H14a2,2,0,0,0,0,4H56a2,2,0,0,0,0-4ZM26.68,78H42.94a6.54,6.54,0,0,1,6,4H20.67A6.54,6.54,0,0,1,26.68,78Z"/><text x="0" y="115" fill="#000000" font-size="5px" font-weight="bold" font-family="'Helvetica Neue', Helvetica, Arial-Unicode, Arial, Sans-serif">Created by Blair Adams</text><text x="0" y="120" fill="#000000" font-size="5px" font-weight="bold" font-family="'Helvetica Neue', Helvetica, Arial-Unicode, Arial, Sans-serif">from the Noun Project</text></svg>