<svg xmlns="http://www.w3.org/2000/svg" data-name="Layer 1" viewBox="0 0 64 80" x="0px" y="0px"><title>innovation-adjustment- reform- reorganization- improvement</title><path d="M55,2a6.817,6.817,0,0,0-7,6.6,6.392,6.392,0,0,0,2.25,4.845V14.9a.986.986,0,0,0,.059.336L51,17.172v2.5A2.328,2.328,0,0,0,53.325,22h3.35A2.328,2.328,0,0,0,59,19.675v-2.5l.691-1.936a.986.986,0,0,0,.059-.336V13.445A6.392,6.392,0,0,0,62,8.6,6.817,6.817,0,0,0,55,2Zm2,17.675a.326.326,0,0,1-.325.325h-3.35A.326.326,0,0,1,53,19.675V18h4Zm1.15-7.508a1,1,0,0,0-.4.8v1.759L57.3,16h-4.59l-.455-1.273V12.968a1,1,0,0,0-.4-.8A4.452,4.452,0,0,1,50,8.6a5.017,5.017,0,0,1,10,0A4.452,4.452,0,0,1,58.15,12.167Z"/><path d="M46,35a1,1,0,0,0,1-1V30a1,1,0,0,0-1-1H43.613a11.831,11.831,0,0,0-1.277-3.093l1.685-1.685a1,1,0,0,0,0-1.414l-2.829-2.829a1,1,0,0,0-1.414,0l-1.685,1.686A11.834,11.834,0,0,0,35,20.387V18a1,1,0,0,0-1-1H30a1,1,0,0,0-1,1v2.387a11.834,11.834,0,0,0-3.093,1.278l-1.685-1.686a1,1,0,0,0-1.414,0l-2.829,2.829a1,1,0,0,0,0,1.414l1.685,1.685A11.831,11.831,0,0,0,20.387,29H18a1,1,0,0,0-1,1v4a1,1,0,0,0,1,1h2.387a11.831,11.831,0,0,0,1.277,3.093l-1.685,1.685a1,1,0,0,0,0,1.414l2.829,2.829a1,1,0,0,0,1.414,0l1.685-1.686A11.834,11.834,0,0,0,29,43.613V46a1,1,0,0,0,1,1h4a1,1,0,0,0,1-1V43.613a11.834,11.834,0,0,0,3.093-1.278l1.685,1.686a1,1,0,0,0,1.414,0l2.829-2.829a1,1,0,0,0,0-1.414l-1.685-1.685A11.831,11.831,0,0,0,43.613,35Zm-4.174-1.181a9.892,9.892,0,0,1-1.589,3.846,1,1,0,0,0,.117,1.274L41.9,40.485,40.485,41.9l-1.547-1.545a1,1,0,0,0-1.274-.117,9.881,9.881,0,0,1-3.845,1.589A1,1,0,0,0,33,42.81V45H31V42.81a1,1,0,0,0-.819-.984,9.881,9.881,0,0,1-3.845-1.589,1,1,0,0,0-1.274.117L23.515,41.9,22.1,40.485l1.545-1.546a1,1,0,0,0,.117-1.274,9.892,9.892,0,0,1-1.589-3.846A1,1,0,0,0,21.19,33H19V31h2.19a1,1,0,0,0,.984-.819,9.892,9.892,0,0,1,1.589-3.846,1,1,0,0,0-.117-1.274L22.1,23.515,23.515,22.1l1.547,1.545a1,1,0,0,0,1.274.117,9.881,9.881,0,0,1,3.845-1.589A1,1,0,0,0,31,21.19V19h2v2.19a1,1,0,0,0,.819.984,9.881,9.881,0,0,1,3.845,1.589,1,1,0,0,0,1.274-.117L40.485,22.1,41.9,23.515l-1.545,1.546a1,1,0,0,0-.117,1.274,9.892,9.892,0,0,1,1.589,3.846A1,1,0,0,0,42.81,31H45v2H42.81A1,1,0,0,0,41.826,33.819Z"/><path d="M32,24a8,8,0,1,0,8,8A8.009,8.009,0,0,0,32,24Zm0,14a6,6,0,1,1,6-6A6.006,6.006,0,0,1,32,38Z"/><path d="M3,62H19a1,1,0,0,0,1-1V57a9.01,9.01,0,0,0-5.623-8.337,5,5,0,1,0-6.754,0A9.01,9.01,0,0,0,2,57v4A1,1,0,0,0,3,62Zm8-20a3,3,0,1,1-3,3A3,3,0,0,1,11,42ZM4,57a7,7,0,0,1,14,0v3H4Z"/><path d="M13.271,33H15V31H13.271A9.149,9.149,0,0,1,4,22a9.149,9.149,0,0,1,9.271-9H47V11H13.271A11.151,11.151,0,0,0,2,22,11.151,11.151,0,0,0,13.271,33Z"/><path d="M50.729,31H49v2h1.729a9,9,0,1,1,0,18H21v2H50.729a11,11,0,1,0,0-22Z"/><text x="0" y="79" fill="#000000" font-size="5px" font-weight="bold" font-family="'Helvetica Neue', Helvetica, Arial-Unicode, Arial, Sans-serif">Created by Sumit Saengthong</text><text x="0" y="84" fill="#000000" font-size="5px" font-weight="bold" font-family="'Helvetica Neue', Helvetica, Arial-Unicode, Arial, Sans-serif">from the Noun Project</text></svg>