<svg width="35" height="31" viewBox="0 0 35 31" fill="none" xmlns="http://www.w3.org/2000/svg">
<path d="M34.8932 29.7482L30.0334 18.2981C29.8861 17.9668 29.5547 17.7458 29.1866 17.7458H20.2032V19.5499H28.5975L32.6842 29.1592H2.27325L6.35995 19.5499H14.7542V17.7458H5.73406C5.36589 17.7458 5.03453 17.9668 4.88726 18.2981L0.0642213 29.7482C-0.04623 30.0059 -0.0094129 30.3373 0.137856 30.595C0.285124 30.8527 0.579661 31 0.911015 31H34.0464C34.341 31 34.6355 30.8527 34.8196 30.595C34.9668 30.3373 35.0037 30.0059 34.8932 29.7482Z" fill="black"/>
<path d="M9.26808 12.6283H16.5579V23.5998C16.5579 24.1152 16.9629 24.5202 17.4783 24.5202C17.9937 24.5202 18.3987 24.1152 18.3987 23.5998V12.6283H25.6885C26.204 12.6283 26.6089 12.2233 26.6089 11.7078V0.920428C26.6089 0.404988 26.204 0 25.6885 0H9.26808C8.75264 0 8.34766 0.404988 8.34766 0.920428V11.7078C8.34766 12.2233 8.75264 12.6283 9.26808 12.6283ZM10.1517 1.84086H24.7681V10.8242H10.1517V1.84086Z" fill="black"/>
<path d="M13.0239 5.41208H21.8969C22.4123 5.41208 22.8173 5.0071 22.8173 4.49166C22.8173 3.97622 22.4123 3.57123 21.8969 3.57123H13.0239C12.5085 3.57123 12.1035 3.97622 12.1035 4.49166C12.1403 5.0071 12.5453 5.41208 13.0239 5.41208Z" fill="black"/>
<path d="M22.8173 8.09975C22.8173 7.58431 22.4123 7.17932 21.8969 7.17932H13.0239C12.5085 7.17932 12.1035 7.58431 12.1035 8.09975C12.1035 8.61519 12.5085 9.02018 13.0239 9.02018H21.8969C22.4123 9.02018 22.8173 8.61519 22.8173 8.09975Z" fill="black"/>
</svg>
