<svg xmlns="http://www.w3.org/2000/svg" data-name="Layer 1" viewBox="0 0 100 125" x="0px" y="0px"><title>32</title><g data-name="Group"><path data-name="Compound Path" d="M86.8,11H26.5a11,11,0,0,0-11,10.9l-.4,42.4H4.7a3,3,0,0,0-3,3v7.3A14.3,14.3,0,0,0,15.5,89H67.1A14.3,14.3,0,0,0,81.4,74.7V38.8H95.3a3,3,0,0,0,3-3V22.5A11.5,11.5,0,0,0,86.8,11ZM16,83a8.3,8.3,0,0,1-8.3-8.3V70.3h45v4.3A14.2,14.2,0,0,0,55.4,83Zm59.3-8.3a8.3,8.3,0,0,1-16.7,0V67.3a3,3,0,0,0-3-3H21.1L21.5,22a5,5,0,0,1,5-5H76.8a11.4,11.4,0,0,0-1.4,5.5ZM92.3,32.8H81.4V22.5a5.5,5.5,0,1,1,10.9,0Z"/><rect data-name="Path" x="27.9" y="27.7" width="21.5" height="6"/><rect data-name="Path" x="27.9" y="39.7" width="39.5" height="6"/><rect data-name="Path" x="27.9" y="51.7" width="39.5" height="6"/></g><text x="0" y="115" fill="#000000" font-size="5px" font-weight="bold" font-family="'Helvetica Neue', Helvetica, Arial-Unicode, Arial, Sans-serif">Created by Adiyogi</text><text x="0" y="120" fill="#000000" font-size="5px" font-weight="bold" font-family="'Helvetica Neue', Helvetica, Arial-Unicode, Arial, Sans-serif">from the Noun Project</text></svg>