<svg width="46" height="42" viewBox="0 0 46 42" fill="none" xmlns="http://www.w3.org/2000/svg">
<path d="M44.8437 22.6226L38.9696 9.20269H41.6967C42.4571 9.19579 43.1837 8.90043 43.7173 8.38131C44.2509 7.86219 44.5481 7.16161 44.5438 6.433V5.70138C44.5438 5.46576 44.4461 5.2398 44.2722 5.07319C44.0983 4.90659 43.8625 4.81299 43.6166 4.81299C43.3706 4.81299 43.1348 4.90659 42.9609 5.07319C42.787 5.2398 42.6894 5.46576 42.6894 5.70138V6.433C42.6894 6.69079 42.5825 6.93802 42.3922 7.12031C42.202 7.30259 41.9439 7.405 41.6749 7.405H27.9087C27.7089 6.46899 27.2232 5.61103 26.5133 4.94014C25.8033 4.26925 24.9013 3.81572 23.9217 3.63718V0.888391C23.9217 0.652775 23.8241 0.426809 23.6502 0.260204C23.4763 0.0935979 23.2405 0 22.9945 0C22.7486 0 22.5128 0.0935979 22.3389 0.260204C22.165 0.426809 22.0673 0.652775 22.0673 0.888391V3.63718C21.0898 3.81758 20.1901 4.27194 19.4823 4.94269C18.7745 5.61345 18.2904 6.4704 18.0913 7.405H4.32511C4.05606 7.405 3.79803 7.30259 3.60778 7.12031C3.41753 6.93802 3.31065 6.69079 3.31065 6.433V5.70138C3.31065 5.46576 3.21296 5.2398 3.03908 5.07319C2.86519 4.90659 2.62936 4.81299 2.38345 4.81299C2.13754 4.81299 1.9017 4.90659 1.72782 5.07319C1.55394 5.2398 1.45625 5.46576 1.45625 5.70138V6.433C1.45409 6.79554 1.52667 7.15492 1.66981 7.49052C1.81295 7.82612 2.02384 8.13134 2.29039 8.38867C2.55693 8.646 2.87388 8.85037 3.22304 8.99006C3.57221 9.12975 3.94673 9.20201 4.32511 9.20269H7.10126L1.34717 22.6226H0V23.511C0 27.4199 3.59972 30.6025 8.01755 30.6025C12.4354 30.6025 16.0406 27.4199 16.0406 23.511V22.6226H14.8843L9.0102 9.20269H18.0913C18.27 10.157 18.7459 11.0372 19.4566 11.7274C20.1672 12.4177 21.0793 12.8856 22.0728 13.0698V35.3841L14.437 38.2165C14.0068 38.3768 13.6369 38.6574 13.3753 39.0218C13.1136 39.3862 12.9724 39.8175 12.9699 40.2598V42H33.5428V40.2807C33.547 39.8269 33.4053 39.3829 33.1369 39.0089C32.8686 38.6349 32.4866 38.3491 32.0429 38.1904L23.9272 35.3736V13.0698C24.9207 12.8856 25.8328 12.4177 26.5434 11.7274C27.2541 11.0372 27.73 10.157 27.9087 9.20269H37.0607L31.3066 22.6226H29.9595V23.511C29.9595 27.4199 33.5592 30.6025 37.9825 30.6025C42.4057 30.6025 46 27.4199 46 23.511V22.6226H44.8437ZM8.01755 28.8257C4.97415 28.8257 2.43254 26.9078 1.94167 24.3994H14.0989C13.608 26.9078 11.0664 28.8257 8.01755 28.8257ZM3.36519 22.6226L8.07754 11.617L12.8881 22.6226H3.36519ZM31.7266 40.2232H14.8188C14.8272 40.146 14.8576 40.0725 14.9067 40.0108C14.9558 39.949 15.0216 39.9014 15.097 39.8731L23 36.9414L31.3939 39.8888C31.4704 39.9122 31.5383 39.9561 31.5895 40.0154C31.6408 40.0747 31.6732 40.1468 31.683 40.2232H31.7266ZM23 11.3766C22.3754 11.3766 21.7649 11.1992 21.2455 10.8667C20.7262 10.5342 20.3215 10.0617 20.0825 9.50878C19.8434 8.9559 19.7809 8.34752 19.9028 7.76058C20.0246 7.17364 20.3254 6.6345 20.767 6.21134C21.2087 5.78818 21.7713 5.50001 22.3839 5.38326C22.9965 5.26651 23.6315 5.32643 24.2085 5.55544C24.7855 5.78445 25.2787 6.17227 25.6257 6.66986C25.9727 7.16744 26.1579 7.75244 26.1579 8.35088C26.1579 9.15336 25.8252 9.92297 25.233 10.4904C24.6408 11.0578 23.8375 11.3766 23 11.3766ZM38.0261 11.617L42.8312 22.6226H33.3137L38.0261 11.617ZM37.9825 28.8257C34.9336 28.8257 32.392 26.9078 31.9011 24.3994H44.0583C43.5675 26.9078 41.0258 28.8257 37.9825 28.8257Z" fill="black"/>
</svg>
