<svg width="18" height="18" viewBox="0 0 18 18" fill="none" xmlns="http://www.w3.org/2000/svg">
<path d="M18 8.991C18 4.0275 13.968 0 9 0C4.032 0 0 4.0275 0 8.991C0 11.7248 1.242 14.1885 3.186 15.8422C3.204 15.8602 3.222 15.8603 3.222 15.8783C3.384 16.0042 3.546 16.1302 3.726 16.2563C3.816 16.3102 3.888 16.3811 3.978 16.4531C5.46533 17.4615 7.22105 18.0004 9.018 18C10.815 18.0004 12.5707 17.4615 14.058 16.4531C14.148 16.3991 14.22 16.3283 14.31 16.2731C14.472 16.1483 14.652 16.0222 14.814 15.8962C14.832 15.8783 14.85 15.8782 14.85 15.8602C16.758 14.1874 18 11.7248 18 8.991ZM9 16.8671C7.308 16.8671 5.76 16.3271 4.482 15.4282C4.5 15.2842 4.536 15.1414 4.572 14.9974C4.67926 14.6071 4.83656 14.2324 5.04 13.8825C5.238 13.5405 5.472 13.2345 5.76 12.9645C6.03 12.6945 6.354 12.4436 6.678 12.2456C7.02 12.0476 7.38 11.9036 7.776 11.7956C8.17508 11.6881 8.58668 11.634 9 11.6348C10.227 11.6261 11.4089 12.0967 12.294 12.9465C12.708 13.3605 13.032 13.8465 13.266 14.4034C13.392 14.7274 13.482 15.0694 13.536 15.4282C12.2076 16.3622 10.6239 16.8646 9 16.8671ZM6.246 8.54212C6.0874 8.179 6.00764 7.78635 6.012 7.39012C6.012 6.99525 6.084 6.59925 6.246 6.23925C6.408 5.87925 6.624 5.55638 6.894 5.28638C7.164 5.01638 7.488 4.8015 7.848 4.6395C8.208 4.4775 8.604 4.4055 9 4.4055C9.414 4.4055 9.792 4.4775 10.152 4.6395C10.512 4.8015 10.836 5.0175 11.106 5.28638C11.376 5.55638 11.592 5.88037 11.754 6.23925C11.916 6.59925 11.988 6.99525 11.988 7.39012C11.988 7.80412 11.916 8.18213 11.754 8.541C11.5977 8.89567 11.3781 9.21894 11.106 9.495C10.8298 9.76668 10.5066 9.98587 10.152 10.1419C9.40818 10.4476 8.57382 10.4476 7.83 10.1419C7.47541 9.98587 7.15215 9.76668 6.876 9.495C6.60354 9.22296 6.3892 8.89839 6.246 8.541V8.54212ZM14.598 14.5114C14.598 14.4754 14.58 14.4574 14.58 14.4214C14.403 13.8582 14.142 13.325 13.806 12.8396C13.4697 12.3507 13.0563 11.9195 12.582 11.5627C12.2198 11.2903 11.8272 11.0607 11.412 10.8787C11.6009 10.7542 11.7759 10.6097 11.934 10.4479C12.2024 10.1829 12.438 9.88684 12.636 9.56588C13.0347 8.91091 13.2405 8.1568 13.23 7.39012C13.2356 6.82258 13.1253 6.25986 12.906 5.73637C12.6895 5.23197 12.3778 4.774 11.988 4.3875C11.5988 4.00503 11.1407 3.69966 10.638 3.4875C10.1136 3.26857 9.5502 3.15871 8.982 3.16462C8.41373 3.15907 7.85028 3.26931 7.326 3.48863C6.81891 3.70034 6.35975 4.01218 5.976 4.4055C5.59355 4.79429 5.28817 5.25197 5.076 5.75437C4.85668 6.27786 4.74643 6.84058 4.752 7.40812C4.752 7.80412 4.806 8.18213 4.914 8.541C5.022 8.919 5.166 9.261 5.364 9.58387C5.544 9.90788 5.796 10.1959 6.066 10.4659C6.228 10.6279 6.408 10.7708 6.606 10.8967C6.18956 11.0836 5.79681 11.3192 5.436 11.5988C4.968 11.9588 4.554 12.3896 4.212 12.8576C3.87254 13.341 3.61134 13.8748 3.438 14.4394C3.42 14.4754 3.42 14.5114 3.42 14.5294C1.998 13.0905 1.116 11.1488 1.116 8.991C1.116 4.6575 4.662 1.11487 9 1.11487C13.338 1.11487 16.884 4.6575 16.884 8.991C16.8816 11.061 16.0597 13.0458 14.598 14.5114Z" fill="#F65940"/>
</svg>
