<svg width="37" height="39" viewBox="0 0 37 39" fill="none" xmlns="http://www.w3.org/2000/svg">
<path d="M28.0358 15.8911V14.414C28.8125 13.9304 29.3107 13.0676 29.3107 12.1197V11.6541L30.6561 6.95521C30.7265 6.70884 30.5925 6.44914 30.3516 6.36202C30.3245 6.35226 27.5978 5.32513 22.4762 0.144727C22.3848 0.0521301 22.2598 0 22.1296 0H14.0647C13.9345 0 13.8095 0.0521301 13.7181 0.144727C8.59648 5.32513 5.86976 6.35226 5.84477 6.3613C5.60149 6.447 5.46724 6.70717 5.53817 6.95521L6.88356 11.6541V12.1197C6.88356 13.1298 7.44661 14.0463 8.31288 14.5064L8.27751 15.8911C8.27751 19.3835 10.0933 22.5391 12.9806 24.3161V27.6332L9.83233 28.6046L5.32394 29.8477C1.89264 30.5894 0.712924 33.6839 0.314926 35.4623C0.109976 36.379 0.00381189 37.4047 3.2922e-06 38.5108C-0.0004728 38.6403 0.0507052 38.7648 0.142111 38.8567C0.233756 38.9483 0.358011 39 0.487503 39H18.1568H35.8258C35.9553 39 36.0795 38.9483 36.1712 38.8567C36.2626 38.7648 36.3138 38.6403 36.3133 38.5108C36.3095 37.4047 36.2033 36.379 35.9984 35.4623C35.6004 33.6839 34.4206 30.5894 31.016 29.8544L26.4811 28.6046L23.2298 27.6014V24.3788C26.169 22.6201 28.0358 19.4301 28.0358 15.8911ZM14.2677 0.975H21.9266C26.0503 5.12089 28.6378 6.62505 29.6018 7.09493L28.5055 10.9239C27.2093 10.4192 23.5778 9.23831 18.112 9.31439C12.637 9.24459 8.98918 10.4231 7.68923 10.9255L6.59244 7.09493C7.55649 6.62505 10.144 5.12089 14.2677 0.975ZM7.85856 11.908C8.86427 11.5043 12.5305 10.208 18.112 10.2894C23.6709 10.2127 27.3338 11.5036 28.3357 11.9076V12.1197C28.3357 12.8452 27.8868 13.4967 27.2186 13.7407C24.2957 14.809 21.2312 15.3339 18.1022 15.2996C18.1006 15.2996 18.0987 15.2996 18.097 15.2996C18.0953 15.2996 18.0934 15.2996 18.0918 15.2996C14.9623 15.3344 11.8985 14.8092 8.97567 13.7407C8.3075 13.4967 7.85856 12.8452 7.85856 12.1197V11.908V11.908ZM9.25227 15.9035L9.27863 14.8733C12.1185 15.83 15.0795 16.2983 18.097 16.2746C18.1939 16.2755 18.2905 16.2763 18.3872 16.2763C21.3549 16.2763 24.2678 15.7842 27.0608 14.8246V15.8911C27.0608 19.1524 25.3015 22.0832 22.554 23.6432C22.5517 23.6442 22.5499 23.6458 22.5477 23.6468C22.0447 23.9319 21.5125 24.1764 20.9477 24.3629C20.922 24.371 18.352 25.1574 15.3727 24.365C11.7119 23.157 9.25251 19.7516 9.25227 15.9035ZM13.3248 28.5473L17.5053 32.8998L15.5462 35.2871L10.7993 29.3266L13.3248 28.5473ZM35.0467 35.6751C35.2064 36.388 35.3011 37.1764 35.3295 38.025H18.1568H0.983811C1.01214 37.1764 1.10688 36.388 1.2666 35.6751C1.61342 34.1238 2.62888 31.4278 5.5565 30.7941L9.79193 29.6269L15.1592 36.3664C15.2508 36.4816 15.3898 36.5489 15.5369 36.5501C15.5381 36.5501 15.5393 36.5501 15.5405 36.5501C15.6864 36.5501 15.8247 36.4847 15.9173 36.3718L18.1567 33.6428L20.396 36.3718C20.4886 36.4847 20.6269 36.5501 20.7728 36.5501C20.774 36.5501 20.7752 36.5501 20.7764 36.5501C20.9235 36.5489 21.0625 36.4816 21.1541 36.3664L26.5216 29.6269L30.7834 30.8008C33.6844 31.4278 34.6999 34.1238 35.0467 35.6751ZM20.7671 35.2871L18.8083 32.8998L22.9887 28.5473L25.5142 29.3266L20.7671 35.2871ZM22.2548 27.904L18.1568 32.1705L13.9556 27.7967V24.8366C14.3232 25.01 14.7003 25.1691 15.0944 25.2991C16.2046 25.5945 17.2539 25.6933 18.1615 25.6933C19.9342 25.6933 21.1655 25.3164 21.2465 25.291C21.594 25.1763 21.9277 25.0376 22.2548 24.8884V27.904Z" fill="black"/>
<path d="M8.97258 31.1043L4.81598 32.1309C4.55461 32.1954 4.39513 32.4596 4.45963 32.721C4.51438 32.9431 4.71338 33.0916 4.93238 33.0916C4.97118 33.0916 5.01045 33.0871 5.04973 33.0773L9.20633 32.0507C9.4677 31.9862 9.62718 31.722 9.56267 31.4606C9.49817 31.1992 9.23394 31.0402 8.97258 31.1043Z" fill="black"/>
<path d="M26.5104 31.4606C26.4459 31.722 26.6054 31.9862 26.8668 32.0507L31.0234 33.0774C31.0626 33.0871 31.1019 33.0917 31.1407 33.0917C31.3595 33.0917 31.5587 32.9431 31.6135 32.721C31.678 32.4597 31.5185 32.1955 31.2571 32.1309L27.1005 31.1043C26.8396 31.0391 26.5747 31.199 26.5104 31.4606Z" fill="black"/>
<path d="M15.8628 4.48557C15.3767 5.63672 15.8473 6.9583 16.9575 7.55982L17.8054 8.01947C17.8778 8.05875 17.9577 8.07851 18.0377 8.07851C18.1177 8.07851 18.1977 8.05875 18.27 8.01947L19.1179 7.56006C20.2281 6.9583 20.6987 5.63672 20.2058 4.46939C20.1229 4.27467 20.2896 3.91452 20.3767 3.78217C20.5176 3.57365 20.4764 3.29206 20.2819 3.13233L19.8494 2.77766C19.7118 2.6653 19.5243 2.63626 19.3605 2.70149C18.7766 2.93333 18.4733 2.62984 18.4162 2.56366C18.2298 2.33372 17.8373 2.33634 17.6542 2.56985C17.6512 2.57366 17.3446 2.95214 16.715 2.70149C16.5502 2.63626 16.3634 2.6653 16.226 2.77766L15.7935 3.13233C15.599 3.29206 15.5579 3.57365 15.6988 3.78217C15.7745 3.89453 15.9561 4.2661 15.8628 4.48557ZM16.7671 4.85072C16.9361 4.45296 16.8625 4.03735 16.7504 3.72647C17.3198 3.84168 17.7549 3.67982 18.0377 3.50153C18.3208 3.68029 18.7559 3.84264 19.3262 3.72624C19.2143 4.03902 19.1417 4.45891 19.3143 4.86501C19.5995 5.54008 19.3091 6.34726 18.6533 6.70289L18.0377 7.03638L17.4222 6.70265C16.7664 6.34726 16.476 5.54008 16.7671 4.85072Z" fill="black"/>
</svg>
