<svg xmlns="http://www.w3.org/2000/svg" xmlns:xlink="http://www.w3.org/1999/xlink" version="1.1" x="0px" y="0px" viewBox="0 0 100 125" style="enable-background:new 0 0 100 100;" xml:space="preserve"><g><path d="M81,28c0.5527344,0,1-0.4477539,1-1v-8c0-0.5522461-0.4472656-1-1-1H19c-0.5527344,0-1,0.4477539-1,1v8   c0,0.5522461,0.4472656,1,1,1h3v44h-3c-0.5527344,0-1,0.4477539-1,1v8c0,0.5522461,0.4472656,1,1,1h62c0.5527344,0,1-0.4477539,1-1   v-8c0-0.5522461-0.4472656-1-1-1h-3V28H81z M80,74v6H20v-6h3h4h9h4h21h4h8h4H80z M24,72V28h2v44H24z M28,72V28h7v44H28z M37,72V28   h2v13v31H37z M48,42h4h8v30H41V42H48z M41,40V28h6v12H41z M49,40V28h2v12H49z M53,40V28h7v12H53z M62,72V41V28h2v44H62z M66,72V28   h6v44H66z M74,72V28h2v44H74z M77,26h-4h-8h-4h-9h-4h-8h-4h-9h-4h-3v-6h60v6H77z"/><path d="M55,60c1.6542969,0,3-1.3457031,3-3s-1.3457031-3-3-3s-3,1.3457031-3,3S53.3457031,60,55,60z M55,56   c0.5517578,0,1,0.4487305,1,1s-0.4482422,1-1,1s-1-0.4487305-1-1S54.4482422,56,55,56z"/></g><text x="0" y="115" fill="#000000" font-size="5px" font-weight="bold" font-family="'Helvetica Neue', Helvetica, Arial-Unicode, Arial, Sans-serif">Created by Edwin PM</text><text x="0" y="120" fill="#000000" font-size="5px" font-weight="bold" font-family="'Helvetica Neue', Helvetica, Arial-Unicode, Arial, Sans-serif">from the Noun Project</text></svg>