<svg width="46" height="46" viewBox="0 0 46 46" fill="none" xmlns="http://www.w3.org/2000/svg">
<path d="M23.504 18.4549C23.504 17.8727 23.0278 17.4006 22.4404 17.4006H9.54324C8.95535 17.4006 8.47968 17.8722 8.47968 18.4549C8.47968 19.0377 8.95535 19.5098 9.54324 19.5098H22.4404C23.0273 19.5098 23.504 19.0372 23.504 18.4549Z" fill="black"/>
<path d="M22.4404 10.022H9.54324C8.95535 10.022 8.47968 10.4935 8.47968 11.0768C8.47968 11.6591 8.95535 12.1311 9.54324 12.1311H22.4404C23.0273 12.1311 23.504 11.6596 23.504 11.0768C23.504 10.494 23.0273 10.022 22.4404 10.022Z" fill="black"/>
<path d="M9.54324 23.8418C8.95535 23.8418 8.47968 24.3133 8.47968 24.8961C8.47968 25.4794 8.95535 25.9504 9.54324 25.9504H13.2146C13.8025 25.9504 14.2782 25.4799 14.2782 24.8961C14.2782 24.3138 13.802 23.8418 13.2146 23.8418H9.54324Z" fill="black"/>
<path d="M30.6562 17.5981C31.2436 17.5981 31.7198 17.1266 31.7198 16.5438V3.34283C31.7198 2.76055 31.2441 2.28852 30.6562 2.28852H25.9925V1.05481C25.993 0.471534 25.5164 0 24.929 0C24.3411 0 23.8654 0.471534 23.8654 1.05481V2.28852H16.9487V1.05481C16.9487 0.471534 16.4731 0 15.8852 0C15.2973 0 14.8216 0.471534 14.8216 1.05481V2.28852H7.90341V1.05481C7.90341 0.471534 7.42723 0 6.83985 0C6.25246 0 5.77629 0.471534 5.77629 1.05481V2.28852H1.06356C0.47567 2.28852 0 2.76005 0 3.34283V44.4851C0 45.0673 0.47567 45.5394 1.06356 45.5394H26.4374C29.3804 45.5394 31.7754 43.1662 31.7754 40.2503V36.4274C31.7754 35.8451 31.2997 35.3731 30.7118 35.3731C30.1244 35.3731 29.6483 35.8446 29.6483 36.4274V40.2503C29.6483 42.0041 28.2076 43.4312 26.4374 43.4312H2.12763V4.39714H5.77629V5.6078C5.77629 6.19007 6.25246 6.66261 6.83985 6.66261C7.42723 6.66261 7.90341 6.19007 7.90341 5.6078V4.39714H14.8216V5.6078C14.8216 6.19007 15.2978 6.66261 15.8852 6.66261C16.4725 6.66261 16.9487 6.19007 16.9487 5.6078V4.39714H23.8649V5.6078C23.8649 6.19007 24.3406 6.66261 24.9285 6.66261C25.5158 6.66261 25.992 6.19007 25.992 5.6078V4.39714H29.5916V16.5438C29.5927 17.1261 30.0683 17.5981 30.6562 17.5981Z" fill="black"/>
<path d="M4.74711 10.317C4.54896 10.5119 4.43573 10.784 4.43573 11.0616C4.43573 11.3407 4.54896 11.6128 4.74711 11.8073C4.94426 12.0052 5.21975 12.1154 5.49929 12.1154C5.77883 12.1154 6.05331 12.0047 6.25096 11.8073C6.44912 11.6113 6.56336 11.3392 6.56336 11.0616C6.56336 10.784 6.44912 10.5124 6.25096 10.317C5.85566 9.92363 5.14241 9.92363 4.74711 10.317Z" fill="black"/>
<path d="M4.74711 17.8336C4.54896 18.0285 4.43573 18.3006 4.43573 18.5782C4.43573 18.8573 4.54896 19.1294 4.74711 19.3239C4.94426 19.5218 5.21975 19.632 5.49929 19.632C5.77883 19.632 6.05331 19.5213 6.25096 19.3239C6.44912 19.1279 6.56336 18.8558 6.56336 18.5782C6.56336 18.3006 6.44912 18.029 6.25096 17.8336C5.85566 17.4402 5.14241 17.4402 4.74711 17.8336Z" fill="black"/>
<path d="M4.74711 24.3478C4.54896 24.5427 4.43573 24.8148 4.43573 25.0924C4.43573 25.3715 4.54896 25.6436 4.74711 25.838C4.94426 26.036 5.21975 26.1462 5.49929 26.1462C5.77883 26.1462 6.05331 26.0355 6.25096 25.838C6.44912 25.6421 6.56336 25.37 6.56336 25.0924C6.56336 24.8148 6.44912 24.5432 6.25096 24.3478C5.85566 23.9544 5.14241 23.9544 4.74711 24.3478Z" fill="black"/>
<path fill-rule="evenodd" clip-rule="evenodd" d="M31.4796 19.9304C27.9266 19.9304 25.0464 22.7856 25.0464 26.3077C25.0464 29.8298 27.9266 32.685 31.4796 32.685C35.0326 32.685 37.9129 29.8298 37.9129 26.3077C37.9129 22.7856 35.0326 19.9304 31.4796 19.9304ZM22.128 26.3077C22.128 21.1878 26.3149 17.0374 31.4796 17.0374C36.6444 17.0374 40.8313 21.1878 40.8313 26.3077C40.8313 31.4275 36.6444 35.578 31.4796 35.578C26.3149 35.578 22.128 31.4275 22.128 26.3077Z" fill="black"/>
<path fill-rule="evenodd" clip-rule="evenodd" d="M37.2398 31.4604C37.8181 30.9141 38.7283 30.9418 39.2726 31.5222L45.4953 38.1568C46.0397 38.7372 46.0121 39.6505 45.4337 40.1968C44.8554 40.743 43.9452 40.7153 43.4009 40.1349L37.1782 33.5003C36.6338 32.9199 36.6614 32.0066 37.2398 31.4604Z" fill="black"/>
</svg>
