<svg width="24" height="21" viewBox="0 0 24 21" fill="none" xmlns="http://www.w3.org/2000/svg">
<path d="M23.5397 19.4905L16.092 12.6734C17.2477 11.3058 17.8729 9.63371 17.8729 7.87497C17.8729 5.76972 16.9753 3.79573 15.3521 2.30736C13.7289 0.818996 11.5666 0 9.26945 0C6.97233 0 4.81 0.821621 3.18682 2.30736C1.56077 3.79311 0.666016 5.76972 0.666016 7.87497C0.666016 9.97758 1.56364 11.9568 3.18682 13.4426C4.81 14.9309 6.96946 15.7499 9.26945 15.7499C11.1909 15.7499 13.0148 15.1777 14.5089 14.1224L21.9566 20.9369C21.9785 20.9569 22.0044 20.9728 22.0329 20.9836C22.0615 20.9944 22.0921 21 22.123 21C22.1539 21 22.1845 20.9944 22.213 20.9836C22.2415 20.9728 22.2675 20.9569 22.2893 20.9369L23.5397 19.795C23.5615 19.775 23.5789 19.7513 23.5907 19.7252C23.6025 19.6991 23.6086 19.6711 23.6086 19.6428C23.6086 19.6145 23.6025 19.5865 23.5907 19.5604C23.5789 19.5343 23.5615 19.5105 23.5397 19.4905ZM13.8121 12.0329C12.5961 13.1433 10.9844 13.7549 9.26945 13.7549C7.5545 13.7549 5.94279 13.1433 4.72684 12.0329C3.51375 10.92 2.84555 9.44471 2.84555 7.87497C2.84555 6.30522 3.51375 4.82735 4.72684 3.71698C5.94279 2.60661 7.5545 1.99499 9.26945 1.99499C10.9844 1.99499 12.599 2.60399 13.8121 3.71698C15.0251 4.82998 15.6933 6.30522 15.6933 7.87497C15.6933 9.44471 15.0251 10.9226 13.8121 12.0329Z" fill="white"/>
</svg>
