<svg width="16" height="16" viewBox="0 0 16 16" fill="none" xmlns="http://www.w3.org/2000/svg">
<path d="M15.76 4.17143L10.16 0.171429C10 0.0571428 9.84 0 9.6 0H1.6C0.72 0 0 0.514286 0 1.14286V14.8571C0 15.4857 0.72 16 1.6 16H14.4C15.28 16 16 15.4857 16 14.8571V4.57143C16 4.4 15.92 4.28571 15.76 4.17143ZM9.6 1.37143L14.08 4.57143H9.6V1.37143ZM14.4 14.8571H1.6V1.14286H8V4.57143C8 5.2 8.72 5.71429 9.6 5.71429H14.4V14.8571Z" fill="#F65940"/>
<path d="M3.20007 11.4286H12.8001V12.5714H3.20007V11.4286Z" fill="#F65940"/>
<path d="M3.20007 8H12.8001V9.14286H3.20007V8Z" fill="#F65940"/>
</svg>
