<svg width="14" height="12" viewBox="0 0 14 12" fill="none" xmlns="http://www.w3.org/2000/svg">
<path d="M13.5 1.97344C13.0219 2.17969 12.5016 2.32813 11.9656 2.38594C12.5221 2.05537 12.9387 1.53313 13.1375 0.917194C12.6154 1.2278 12.0434 1.44561 11.4469 1.56094C11.1976 1.29442 10.8961 1.0821 10.5611 0.937206C10.2262 0.792311 9.86495 0.71795 9.50001 0.718756C8.02344 0.718756 6.83594 1.91563 6.83594 3.38438C6.83594 3.59063 6.86094 3.79688 6.90157 3.99532C4.69063 3.87969 2.71876 2.82344 1.40782 1.20626C1.16895 1.61425 1.04378 2.0788 1.04532 2.55157C1.04532 3.47657 1.51563 4.29219 2.23282 4.77188C1.81017 4.75524 1.39742 4.63907 1.02813 4.43282V4.46563C1.02813 5.76094 1.94376 6.83438 3.16407 7.08126C2.93494 7.14077 2.69924 7.17122 2.46251 7.17188C2.28907 7.17188 2.12501 7.15469 1.95938 7.13126C2.29688 8.18751 3.27969 8.95469 4.45001 8.97969C3.53438 9.69688 2.38751 10.1188 1.14219 10.1188C0.918756 10.1188 0.712506 10.1109 0.498444 10.0859C1.67969 10.8438 3.08126 11.2813 4.59063 11.2813C9.49063 11.2813 12.1719 7.22188 12.1719 3.69844C12.1719 3.58282 12.1719 3.46719 12.1641 3.35157C12.6828 2.97188 13.1375 2.50157 13.5 1.97344Z" fill="black"/>
</svg>
