<svg xmlns="http://www.w3.org/2000/svg" viewBox="0 0 378.7 131.54"><defs><style>.cls-1{opacity:0.8;}.cls-2{fill:#00a39c;}.cls-3{fill:#5c4b43;}.cls-4{fill:#c6cdc6;}.cls-5{fill:gray;}.cls-6{fill:#47b3c4;}.cls-7{fill:#2b7d92;}</style></defs><title>Asset 11</title><g id="Layer_2" data-name="Layer 2"><g id="Layer_6" data-name="Layer 6"><path class="cls-2" d="M169.66,12A11.79,11.79,0,0,1,178,15l-1.59,2.41a10.45,10.45,0,0,0-6.62-2.5c-5.13,0-8.47,3.9-8.47,8.78s3.41,9.07,8.51,9.07a10.36,10.36,0,0,0,7.08-3l1.72,2.31a12.28,12.28,0,0,1-8.9,3.64c-6.88,0-11.72-5.27-11.72-12A11.45,11.45,0,0,1,169.66,12Z"/><path class="cls-2" d="M183,12.41h13.31v2.8h-10.1v7.18h8.21v2.79h-8.21v7.38h10.65v2.8H183Z"/><path class="cls-2" d="M201.63,12.41h3.18L215,27.33c.85,1.23,1.92,3.31,1.92,3.31H217s-.23-2-.23-3.31V12.41H220V35.36h-3.15L206.59,20.48c-.85-1.27-1.92-3.35-1.92-3.35h-.06s.23,2,.23,3.35V35.36h-3.21Z"/><path class="cls-2" d="M231.12,15.21h-7.86v-2.8h18.93v2.8h-7.86V35.36h-3.22Z"/><path class="cls-2" d="M245.48,12.41h7a11.51,11.51,0,0,1,4.28.52,6.28,6.28,0,0,1,3.87,6.21,6.29,6.29,0,0,1-4.12,6.21v.07a6.78,6.78,0,0,1,.68,1l4.87,8.9h-3.63l-4.84-9.13h-4.9v9.13h-3.22Zm7.83,11a3.81,3.81,0,0,0,4.06-4.16,3.76,3.76,0,0,0-1.82-3.54,6.33,6.33,0,0,0-3.15-.52h-3.7v8.22Z"/><path class="cls-2" d="M266.3,12.41h13.31v2.8h-10.1v7.18h8.21v2.79h-8.21v7.38h10.65v2.8H266.3Z"/><path class="cls-2" d="M293.26,12.41h12.63v2.8h-9.41v7.54h8v2.79h-8v9.82h-3.21Z"/><path class="cls-2" d="M320.41,12a11.56,11.56,0,0,1,11.75,11.7,11.77,11.77,0,1,1-23.54,0A11.59,11.59,0,0,1,320.41,12Zm0,20.77c4.67,0,8.44-3.9,8.44-9.07a8.46,8.46,0,1,0-16.91,0C311.93,28.89,315.73,32.79,320.41,32.79Z"/><path class="cls-2" d="M336.85,12.41h7a11.52,11.52,0,0,1,4.28.52A6.28,6.28,0,0,1,352,19.14a6.3,6.3,0,0,1-4.12,6.21v.07a6.73,6.73,0,0,1,.68,1l4.87,8.9H349.8L345,26.23h-4.9v9.13h-3.21Zm7.82,11a3.81,3.81,0,0,0,4.06-4.16,3.76,3.76,0,0,0-1.82-3.54,6.33,6.33,0,0,0-3.15-.52h-3.7v8.22Z"/><path class="cls-3" d="M159.56,53.68h3.22V73.83h10.27v2.8H159.56Z"/><path class="cls-3" d="M188.45,70H179.8l-2.27,6.6h-3.32l8.25-22.95h3.38l8.25,22.95h-3.35Zm-4.32-13.19s-.52,2.08-.91,3.25l-2.57,7.28h7l-2.53-7.28c-.39-1.17-.88-3.25-.88-3.25Z"/><path class="cls-3" d="M210.44,53.68l4.48,16.84c.32,1.27.49,2.44.49,2.44h.06a16.15,16.15,0,0,1,.42-2.44l4.23-16.84h3.32l-6,22.95h-3.74l-4-14.88c-.39-1.46-.68-3.25-.68-3.25H209s-.29,1.79-.68,3.25l-4,14.88h-3.74l-5.85-22.95h3.31l4.06,16.84a23.06,23.06,0,0,1,.42,2.44h.06a24.81,24.81,0,0,1,.49-2.44l4.48-16.84Z"/><path class="cls-3" d="M238.6,64.31v-.07a5.07,5.07,0,0,1-3-5c0-3.8,3-5.92,7.05-5.92a14.63,14.63,0,0,1,2.8.36l-.81,2.57a10.17,10.17,0,0,0-1.72-.19c-2.28,0-4.06,1.27-4.06,3.51,0,1.43.68,3.61,4.23,3.61h4.26V60h3.15v3.12h3.06v2.8h-3.06V69c0,5.1-3,8-7.93,8s-8-3-8-6.82A6.13,6.13,0,0,1,238.6,64.31Zm3.93,9.75c2.92,0,4.78-1.59,4.78-5.2V65.93h-4.39c-3.25,0-5.07,1.53-5.07,4.09C237.85,72.24,239.67,74.06,242.53,74.06Z"/><path class="cls-3" d="M266.5,53.68h8.39a6.85,6.85,0,0,1,7.21,7.18,6.93,6.93,0,0,1-7.21,7.28h-5.17v8.48H266.5Zm7.86,11.67a4.14,4.14,0,0,0,4.45-4.49,4.06,4.06,0,0,0-4.42-4.39h-4.68v8.87Z"/><path class="cls-3" d="M296.45,53.29A11.56,11.56,0,0,1,308.22,65a11.78,11.78,0,1,1-23.56,0A11.59,11.59,0,0,1,296.45,53.29Zm0,20.77c4.68,0,8.45-3.9,8.45-9.07A8.47,8.47,0,1,0,288,65C288,70.16,291.77,74.06,296.45,74.06Z"/><path class="cls-3" d="M312.88,53.68h3.22V73.83h10.27v2.8H312.88Z"/><path class="cls-3" d="M330.07,53.68h3.22V76.63h-3.22Z"/><path class="cls-3" d="M349.62,53.29a11.81,11.81,0,0,1,8.35,3l-1.59,2.41a10.46,10.46,0,0,0-6.63-2.5c-5.13,0-8.48,3.9-8.48,8.78s3.41,9.07,8.52,9.07a10.38,10.38,0,0,0,7.09-3l1.72,2.31A12.31,12.31,0,0,1,349.69,77C342.8,77,338,71.75,338,65A11.45,11.45,0,0,1,349.62,53.29Z"/><path class="cls-3" d="M367.81,66.91l-7.7-13.23h3.64L368,61.22c.71,1.27,1.4,2.89,1.4,2.89h.06s.68-1.59,1.4-2.89l4.19-7.54h3.64L371,66.91v9.72h-3.22Z"/><path class="cls-2" d="M159.56,94.94h7a11.53,11.53,0,0,1,4.28.52,6.82,6.82,0,0,1-.26,12.41v.07a6.7,6.7,0,0,1,.68,1l4.87,8.9h-3.64l-4.84-9.13h-4.9v9.13h-3.21Zm7.82,11a3.81,3.81,0,0,0,4.06-4.16,3.76,3.76,0,0,0-1.82-3.54,6.32,6.32,0,0,0-3.15-.52h-3.7V106Z"/><path class="cls-2" d="M180.38,94.94h13.31v2.8h-10.1v7.18h8.21v2.79h-8.21v7.38h10.65v2.8H180.38Z"/><path class="cls-2" d="M199.06,112.82a9,9,0,0,0,5.84,2.47c2.14,0,4-1.2,4-3.38,0-5-11.1-3.9-11.1-11,0-3.58,3.08-6.4,7.4-6.4a9.38,9.38,0,0,1,6.49,2.31l-1.46,2.66a8.07,8.07,0,0,0-5-2c-2.43,0-4.16,1.53-4.16,3.35,0,4.74,11.1,3.48,11.1,10.92,0,3.54-2.73,6.47-7.27,6.47a10.72,10.72,0,0,1-7.6-3Z"/><path class="cls-2" d="M216.73,94.94H230v2.8h-10.1v7.18h8.21v2.79h-8.21v7.38h10.65v2.8H216.73Z"/><path class="cls-2" d="M246.7,111.29h-8.64l-2.27,6.6h-3.31l8.25-22.95h3.38l8.25,22.95H249ZM242.38,98.1s-.52,2.08-.91,3.25l-2.57,7.28h6.95l-2.53-7.28c-.39-1.17-.87-3.25-.87-3.25Z"/><path class="cls-2" d="M255.74,94.94h7a11.51,11.51,0,0,1,4.28.52,6.82,6.82,0,0,1-.26,12.41v.07a6.8,6.8,0,0,1,.68,1l4.87,8.9H268.7l-4.84-9.13H259v9.13h-3.22Zm7.83,11a3.81,3.81,0,0,0,4.06-4.16,3.76,3.76,0,0,0-1.82-3.54,6.33,6.33,0,0,0-3.15-.52H259V106Z"/><path class="cls-2" d="M286.66,94.55a11.79,11.79,0,0,1,8.34,3L293.41,100a10.45,10.45,0,0,0-6.62-2.5c-5.13,0-8.47,3.9-8.47,8.78s3.41,9.07,8.51,9.07a10.36,10.36,0,0,0,7.08-3l1.72,2.31a12.29,12.29,0,0,1-8.9,3.64c-6.88,0-11.72-5.27-11.72-12A11.45,11.45,0,0,1,286.66,94.55Z"/><path class="cls-2" d="M300,94.94h3.21V105h11.88V94.94h3.21v22.95h-3.21V107.81H303.23v10.08H300Z"/><path class="cls-4" d="M65.78,0a65.77,65.77,0,1,0,65.77,65.77A65.78,65.78,0,0,0,65.78,0Zm0,101.95a36.17,36.17,0,1,1,36.17-36.17A36.17,36.17,0,0,1,65.77,101.95Z"/><path class="cls-5" d="M65.77,29.6a36,36,0,0,1,17.06,4.28L84.4,31a39.48,39.48,0,1,0,5.07,66.29l-2-2.63a36.16,36.16,0,1,1-21.73-65Z"/><path class="cls-5" d="M9.87,65.77a55.92,55.92,0,0,1,82.4-49.24l1.57-2.89a59.2,59.2,0,1,0,7.48,99.46l-2-2.63A55.91,55.91,0,0,1,9.87,65.77Z"/><path class="cls-6" d="M65.77,115.1A49.33,49.33,0,1,1,89.12,22.32l1.58-2.89a52.62,52.62,0,1,0,6.68,88.42l-2-2.68A49,49,0,0,1,65.77,115.1Z"/><path class="cls-7" d="M103.29,115.74a62.48,62.48,0,1,1-7.88-105L97,7.87a65.78,65.78,0,1,0,8.28,110.5Z"/><path class="cls-5" d="M19.74,65.77a46,46,0,0,0,73.67,36.76l-2-2.63A42.73,42.73,0,1,1,86,28.1l1.57-2.89A46,46,0,0,0,19.74,65.77Z"/></g></g></svg>