<svg id="Layer_1" data-name="Layer 1" xmlns="http://www.w3.org/2000/svg" viewBox="0 0 300 139"><defs><style>.cls-1{fill:#ffca05;}.cls-2{fill:#bb8bbe;}.cls-3{fill:#f06669;}.cls-4{fill:#f69348;}.cls-5{fill:#c8749b;}.cls-6{fill:#ef4930;}.cls-7{fill:#ef4e23;}.cls-8{fill:#231f20;}.cls-9{fill:#4d4d4f;}</style></defs><title>IDFC_Institute_LogoArtboard 1</title><rect class="cls-1" x="79.32" y="11.31" width="76.62" height="76.63"/><rect class="cls-2" x="8.57" y="9.75" width="76.62" height="76.63"/><rect class="cls-3" x="143.13" y="8.43" width="76.62" height="76.62"/><rect class="cls-4" x="214.81" y="9.75" width="76.62" height="76.63"/><rect class="cls-5" x="79.32" y="11.31" width="5.87" height="75.06"/><rect class="cls-6" x="143.13" y="11.31" width="12.82" height="73.74"/><rect class="cls-7" x="214.81" y="9.75" width="4.94" height="75.3"/><polygon class="cls-8" points="170.71 79.03 170.71 17.09 198.15 17.09 198.15 25.74 180.84 25.74 180.84 42.27 193.5 42.27 193.5 51.23 180.84 51.23 180.84 79.03 170.71 79.03"/><rect class="cls-8" x="40.66" y="17.09" width="9.51" height="61.94"/><path class="cls-8" d="M125.41,22.53c-3.58-3.74-7.2-5.44-15.66-5.44H99.63V79h10.11c8.47,0,12.08-1.7,15.66-5.44,2.67-2.8,4.25-7.33,4.25-14.1V36.63c0-6.77-1.58-11.31-4.25-14.1M120,59.83c0,3.64-.88,6.44-2,7.78a7.48,7.48,0,0,1-6,2.61h-2.78V25.89h2.78a7.48,7.48,0,0,1,6,2.61c1.16,1.34,2,4.14,2,7.78Z"/><path class="cls-8" d="M269.76,59.11q0,9.8-3.93,14.86T254.32,79q-8.21,0-11.83-5.38t-3.63-17.57V40q0-12.2,3.63-17.56t11.83-5.36q7.59,0,11.52,5t3.93,14.67V40h-9.68V34.92q0-5.08-1.39-7.38a5.32,5.32,0,0,0-8.76,0q-1.39,2.3-1.39,7.38V61.15q0,5.08,1.39,7.38a5.33,5.33,0,0,0,8.76,0q1.39-2.3,1.39-7.38V55h9.68Z"/><path class="cls-9" d="M31.51,106.51v18.74H28.22V106.51Z"/><path class="cls-9" d="M45.65,125.25h-7V106.51h7c5.89,0,10,4,10,9.34S51.54,125.25,45.65,125.25Zm0-15.74H42v12.75h3.7a6.37,6.37,0,1,0,0-12.75Z"/><path class="cls-9" d="M75.16,109.51H64.51v5.11H74v3H64.51v7.63H61.21V106.51h14Z"/><path class="cls-9" d="M89.09,125.57a9.69,9.69,0,0,1,.13-19.39,9.77,9.77,0,0,1,7.34,2.92l-2.12,2.44a7.46,7.46,0,0,0-5.25-2.33c-3.59,0-6.18,2.94-6.18,6.64s2.6,6.69,6.18,6.69a7.35,7.35,0,0,0,5.38-2.44l2.12,2.14A9.67,9.67,0,0,1,89.09,125.57Z"/><path class="cls-9" d="M117,106.51v18.74h-3.29V106.51Z"/><path class="cls-9" d="M137.27,106.51h3.24v18.74h-2.76l-10.34-13.33v13.33h-3.24V106.51h3.05l10,13Z"/><path class="cls-9" d="M155,114.38c4,1,6,2.38,6,5.52,0,3.53-2.76,5.62-6.69,5.62a11.55,11.55,0,0,1-7.82-3l2-2.36a8.63,8.63,0,0,0,5.92,2.44c2,0,3.32-.94,3.32-2.38s-.75-2.09-4.23-2.89c-4-1-6.24-2.14-6.24-5.62,0-3.27,2.68-5.46,6.4-5.46a10.39,10.39,0,0,1,6.8,2.36l-1.77,2.49a8.52,8.52,0,0,0-5.09-1.93c-1.93,0-3.05,1-3.05,2.25C150.53,112.88,151.39,113.52,155,114.38Z"/><path class="cls-9" d="M174.69,125.25h-3.32V109.56h-5.95v-3.05h15.21v3.05h-5.94Z"/><path class="cls-9" d="M189.48,106.51v18.74h-3.29V106.51Z"/><path class="cls-9" d="M204.28,125.25H201V109.56H195v-3.05h15.21v3.05h-5.94Z"/><path class="cls-9" d="M231.6,117.14c0,5.6-3.16,8.41-8.06,8.41s-8-2.81-8-8.25V106.51h3.29v10.66c0,3.48,1.79,5.36,4.74,5.36s4.71-1.77,4.71-5.22V106.51h3.29Z"/><path class="cls-9" d="M246.2,125.25h-3.32V109.56h-5.95v-3.05h15.21v3.05H246.2Z"/><path class="cls-9" d="M271.67,109.45h-10.6v4.87h9.4v2.95h-9.4v5H271.8v2.95h-14V106.51h13.9Z"/></svg>